<svg xmlns="http://www.w3.org/2000/svg" width="30" height="30"><path d="M26.582 24.695c-.027-.683-.61-1.21-1.293-1.21h-6.375C21.922 22.034 24 18.96 24 15.41a8.912 8.912 0 0 0-1.277-4.605 2.733 2.733 0 0 0-1.336-3.14l.304-.31c.438.172.93.067 1.262-.261.457-.457.457-1.2 0-1.66l.8-.797a.769.769 0 0 0 .965-.098l.493-.496c.3-.3.3-.785 0-1.082L22.477.223a.769.769 0 0 0-1.082 0l-.497.496a.768.768 0 0 0-.097.965L20 2.48a1.174 1.174 0 0 0-1.918 1.262l-4.25 4.25a1.173 1.173 0 0 0-1.254.262c-.46.457-.441 1.226.016 1.684l.144.144-.996 1a.816.816 0 0 0 0 1.156l1.457 1.457a.81.81 0 0 0 1.156 0l1-1 .165.168c.222.219.52.344.832.344a1.17 1.17 0 0 0 1.093-1.602l.246-.246a2.73 2.73 0 0 0 2.317 1.438c.207.394.367.812.476 1.246a.44.44 0 0 0 .852-.211 6.15 6.15 0 0 0-.41-1.164c.52-.168.98-.488 1.316-.918a8.07 8.07 0 0 1 .875 3.66c0 4.453-3.62 8.074-8.07 8.074-3.36 0-6.383-2.12-7.555-5.226h1.723a6.494 6.494 0 0 0 5.832 3.64c3.176 0 5.828-2.296 6.379-5.32a.426.426 0 0 0-.094-.36.434.434 0 0 0-.336-.16h-.004a.436.436 0 0 0-.43.36c-.476 2.613-2.769 4.602-5.515 4.602a5.61 5.61 0 0 1-4.832-2.762h2.078a.845.845 0 0 0 .844-.844v-.894a.843.843 0 0 0-.844-.844H4.176a.845.845 0 0 0-.844.844v.894c0 .465.379.844.844.844h2.379a9.076 9.076 0 0 0 3.082 4.289c.476.36.988.676 1.527.937h-6.48c-.68 0-1.266.528-1.29 1.211a1.259 1.259 0 0 0 1.262 1.313h.895l-.645 2.289c-.12.414-.031.863.239 1.2.261.323.664.503 1.082.503H23.75c.414 0 .82-.18 1.078-.504.27-.34.36-.785.242-1.2l-.648-2.288h.898c.344 0 .672-.14.91-.387.239-.25.364-.582.352-.926ZM21.934.93l2.574 2.574-.332.332-2.574-2.574Zm-.52 1.386 1.707 1.707-.789.79-1.707-1.708Zm-2.45.79a.309.309 0 0 1 .212-.086c.078 0 .152.03.207.085l.308.31 2.329 2.331.308.309a.292.292 0 0 1-.012.402.292.292 0 0 1-.402.012l-2.95-2.946a.293.293 0 0 1 0-.414Zm-5.187 9.925-1.37-1.37.956-.958 1.371 1.371-.957.953Zm2.782-.789a.295.295 0 0 1-.414 0l-.477-.48-1.992-1.992-.48-.477a.292.292 0 0 1 .015-.402.292.292 0 0 1 .402-.012l2.946 2.945a.293.293 0 0 1 .086.207.309.309 0 0 1-.086.211Zm.804-2.176c0 .121.008.235.024.348l-.496.5-2.368-2.367 4.114-4.11L21 6.801l-.559.562a2.732 2.732 0 0 0-3.078 2.703Zm2.73 1.852a1.85 1.85 0 1 1 .005-3.7 1.85 1.85 0 0 1-.004 3.7Zm-15.878 5.46v-.823h8.043v.824Zm21.484 7.419a.395.395 0 0 1-.39.332h-4.336a.435.435 0 0 0-.434.473l.004.011c.02.223.207.395.43.395h2.535l.71 2.512c.036.14.02.289-.062.406a.468.468 0 0 1-.375.195H6.211a.475.475 0 0 1-.375-.172.444.444 0 0 1-.082-.41l.715-2.531h12.015a.434.434 0 0 0 .434-.395v-.011a.43.43 0 0 0-.43-.473H4.668a.389.389 0 0 1-.39-.332.367.367 0 0 1 .09-.3.375.375 0 0 1 .288-.134H25.32c.227 0 .407.2.38.434Zm0 0" fill="#8cd6ed"/></svg>