<svg xmlns="http://www.w3.org/2000/svg" width="30" height="30" viewBox="0 0 30 24"><path d="M26.777 3.55V1.966a.692.692 0 0 0-.21-.492.72.72 0 0 0-.5-.203h-1.458a.729.729 0 0 0-.504.203.68.68 0 0 0-.207.488v1.59Zm-18.37 7.723a.422.422 0 0 1 .015-.59.454.454 0 0 1 .605-.019l.403.395 1.11-1.09a.447.447 0 0 1 .608.011c.168.165.172.43.012.598l-1.422 1.39a.453.453 0 0 1-.62 0Zm16.491-4.957a.422.422 0 0 1 .211-.394.448.448 0 0 1 .453 0c.141.082.223.234.215.394v9.016c0 .238-.199.43-.441.43a.433.433 0 0 1-.438-.43Zm-6.93 14.536h2.708v-1.844h-2.707Zm3.145.859H6.781a.436.436 0 0 1-.441-.43v-2.703c0-.234.2-.426.441-.426h3.145v-2.449c0-.238.195-.43.437-.43h3.586c.242 0 .438.192.438.43v.762h3.144c.242 0 .438.195.438.43v1.257h3.144c.242 0 .438.192.438.426v2.703c0 .239-.196.43-.438.43Zm-6.726-.86h2.703v-3.527h-2.703Zm-3.586 0h2.707v-4.718H10.8Zm-3.582 0h2.707v-1.843H7.219ZM5.363 5.888H23.02V1.96c0-.426.18-.813.464-1.094.29-.281.688-.457 1.125-.457h1.457c.438 0 .836.176 1.122.457.285.281.468.668.468 1.094v3.926h1.907c.242 0 .437.191.437.43V23.16a.432.432 0 0 1-.438.43H17.395a.433.433 0 0 1-.438-.43c0-.238.195-.43.438-.43H29.12V6.742h-1.465v3.11c0 .234-.199.43-.441.43a.435.435 0 0 1-.438-.43V4.41h-2.879v12.828h2.88v-5.441c0-.235.195-.426.437-.426s.441.191.441.426v5.871a.416.416 0 0 1-.078.242l-1.848 3.563a.44.44 0 0 1-.785.004l-1.855-3.575c-.043-.086-.07-.132-.07-.234V6.742H5.363v3.254c0 .234-.195.43-.437.43a.435.435 0 0 1-.438-.43V1.617A2.403 2.403 0 0 0 2.09 1.56a2.296 2.296 0 0 0-1.211 2.02v14.675l.07-.07a3.286 3.286 0 0 1 3.54-.684v-5.559c0-.238.195-.43.437-.43s.437.192.437.43v6.297c0 .16-.093.309-.242.383a.455.455 0 0 1-.46-.043 2.41 2.41 0 0 0-1.423-.465 2.36 2.36 0 0 0-2.18 1.426 2.267 2.267 0 0 0 .512 2.516c.426.414 1.02.675 1.668.675h12.168c.242 0 .438.192.438.43 0 .235-.196.43-.438.43H3.238a3.26 3.26 0 0 1-2.289-.93A3.122 3.122 0 0 1 0 20.422V3.578c0-.875.363-1.668.95-2.242A3.269 3.269 0 0 1 3.237.41a3.28 3.28 0 0 1 1.93.625.43.43 0 0 1 .195.36ZM26.5 18.097h-2.328l1.164 2.239Zm-5.871-9.609c.242 0 .437.192.437.43s-.195.43-.437.43h-5.95a.433.433 0 0 1-.437-.43c0-.238.195-.43.438-.43Zm-2.477 4.102c.246 0 .442.191.442.43 0 .238-.196.43-.442.43H14.68a.433.433 0 0 1-.438-.43c0-.239.195-.43.438-.43Zm2.477-2.05c.242 0 .437.19.437.429 0 .238-.195.43-.437.43h-5.95a.433.433 0 0 1-.437-.43c0-.239.195-.43.438-.43ZM7.266 8.077H12.3c.242 0 .437.192.437.43v4.922c0 .238-.195.43-.437.43H7.266a.433.433 0 0 1-.438-.43V8.508c0-.238.195-.43.438-.43Zm4.593.86H7.703V13h4.156Zm0 0"/></svg>