<svg xmlns="http://www.w3.org/2000/svg" width="30" height="30" viewBox="0 0 30 29"><path d="M15 29C6.71 29 0 22.516 0 14.5S6.71 0 15 0s15 6.484 15 14.5S23.29 29 15 29ZM15 .527C7.035.527.547 6.801.547 14.5c0 7.7 6.488 13.973 14.453 13.973 7.965 0 14.453-6.274 14.453-13.973C29.453 6.8 22.965.527 15 .527Zm0 0"/><path d="M22.363 14.29c0 .16-.164.26-.328.26H8.184l1.906 1.794c.11.105.11.316 0 .422-.11.105-.328.105-.434 0L7.2 14.5a.313.313 0 0 1-.054-.367s0-.055.054-.055l2.457-2.265a.396.396 0 0 1 .215-.106c.055 0 .164 0 .219.105.11.106.11.317 0 .422l-1.906 1.793H22.09c.11 0 .273.106.273.262Zm0 0"/></svg>