<svg xmlns="http://www.w3.org/2000/svg" width="30" height="30"><path d="m15 7.832 3.555-2.941h4.668V0H11.609v4.832H15Zm-2.445-3.941V.945h9.668v2.946h-4.055l-2.223 1.886V3.891Zm1-1.946h.945v.946h-.945Zm1.945 0h3.89v.946H15.5Zm4.832 0h.945v.946h-.945Zm4.277 27.11-.386-3.946c1.609-.277 2.832-1.664 2.832-3.332V15.5h-1.946v-.668c0-.664-.386-1.223-.941-1.555.555-.554.941-1.277.941-2.109v-.945a2.868 2.868 0 0 0-2.886-2.891 2.87 2.87 0 0 0-2.891 2.89v.887c0 1.282.777 2.336 1.89 2.723l-2.613 2.613h-2.718a1.907 1.907 0 0 0-1.391-1.722l-2-.555v-.89c.61-.555.945-1.278.945-2.169v-.941a2.87 2.87 0 0 0-2.89-2.89 2.868 2.868 0 0 0-2.887 2.89v.941c0 .836.387 1.614.941 2.168v.891l-2 .555c-.832.222-1.386 1-1.386 1.832v1.836H3.39v2.886h.941V29H0v1h30v-.945Zm-4.277-7.778v-2.222l3.445-3.446c.223-.218.391-.554.446-.941v6.11c0 .777-.668 1.445-1.446 1.445h-3.886v-.946Zm-1.441 3.891h2.441l.39 3.887h-2.831Zm3.441 0h.945l.391 3.887h-.945Zm2.836-4.336V16.5h.941v5.332c0 1.336-1.109 2.445-2.441 2.445h-4.777v-.945h3.886c1.278-.11 2.391-1.164 2.391-2.5Zm-4.836-9.723v-.941c0-1.059.89-1.945 1.945-1.945 1.055 0 1.946.886 1.946 1.945v.941c0 1.059-.891 1.946-1.946 1.946-1.109 0-1.945-.832-1.945-1.946Zm-1.277 6.336 3.222-3.222a.503.503 0 0 1 .391-.168c.277 0 .555.222.555.554a.497.497 0 0 1-.168.391l-3.446 3.445H14.5a.498.498 0 0 1-.5-.5c0-.277.223-.5.5-.5ZM8.723 10.168c0-1.059.886-1.945 1.945-1.945 1.055 0 1.941.886 1.941 1.945v.941a1.965 1.965 0 0 1-1.941 1.946 1.93 1.93 0 0 1-1.945-1.946Zm1.945 3.887c.332 0 .664-.055.941-.164v.5c-.109.164-.441.609-.941.609-.5 0-.836-.445-.945-.61v-.5c.277.055.554.165.945.165Zm-4.39 2.5c0-.446.277-.832.722-.946l2-.554c.277.39.832.89 1.668.89.832 0 1.387-.5 1.664-.89l2 .554c.39.114.613.446.668.782h-.445c-.778 0-1.446.664-1.446 1.441 0 .168.059.336.114.5H6.277Zm-1.946 2.777h15v.945h-15Zm1 3.89h1.445v-.945H5.332v-.945h12.559v.945H7.723v.946H17.89v5.832h-1.168l-.946-1.946H7.445L6.5 29.055H5.332Zm10.336 5.833H7.555l.5-.946h7.168Zm0 0"/></svg>