<svg xmlns="http://www.w3.org/2000/svg" width="30" height="30" viewBox="0 0 30 29"><path d="M26.59 5.934c-.406-.399-.953-.399-1.363 0L14.184 16.609l-3.957-4.218c-.41-.395-.954-.395-1.364 0-.41.394-.41.921 0 1.32l4.637 4.742c.137.133.41.266.684.266.27 0 .543-.133.68-.266L26.59 7.117c.273-.262.273-.922 0-1.183Zm-.274 7.644c-.543 0-.953.395-.953.922 0 5.535-4.636 10.02-10.363 10.02-5.727 0-10.363-4.485-10.363-10.02C4.637 8.965 9.273 4.48 15 4.48c.547 0 .953-.394.953-.921 0-.528-.406-.922-.953-.922C8.184 2.637 2.727 7.91 2.727 14.5S8.184 26.363 15 26.363 27.273 21.09 27.273 14.5c0-.527-.41-.922-.957-.922Zm0 0"/></svg>