<svg xmlns="http://www.w3.org/2000/svg" width="30" height="30" viewBox="0 0 30 29"><path d="m25.102 13.484 2.207-3.347c.18.05.382.101.59.101 1.05 0 1.921-.843 1.921-1.86 0-1.015-.87-1.858-1.922-1.858-1.05 0-1.925.843-1.925 1.859 0 .469.18.941.515 1.262l-2.23 3.37H18.05l-4-6.023 2.566-3.394c.23.074.461.125.692.125 1.05 0 1.921-.844 1.921-1.86C19.23.844 18.36 0 17.31 0c-1.051 0-1.926.844-1.926 1.86 0 .445.156.867.437 1.187L13.207 6.52H8.59c-.207-.793-.95-1.391-1.848-1.391-1.05 0-1.922.844-1.922 1.86 0 .472.18.917.512 1.265l-2.05 3.074a2.527 2.527 0 0 0-.872-.176c-1.332 0-2.41 1.043-2.41 2.332 0 1.29 1.078 2.329 2.41 2.329.309 0 .59-.047.871-.172l2.871 4.336-2.562 3.398a2.266 2.266 0 0 0-.692-.125c-1.05 0-1.925.844-1.925 1.86 0 1.015.875 1.859 1.925 1.859 1.051 0 1.922-.844 1.922-1.86 0-.445-.152-.867-.437-1.191L7 20.449h6.23l3.461 5.203c-.18.25-.308.547-.308.844 0 .77.644 1.387 1.437 1.387.617 0 1.153-.395 1.36-.942h3.027c.23 1.067 1.203 1.86 2.355 1.86 1.336 0 2.41-1.04 2.41-2.328 0-.645-.253-1.239-.714-1.66l3.23-4.86Zm2.796-6.046c.54 0 .973.417.973.914 0 .496-.433.941-.973.941a.941.941 0 0 1-.515-.148.911.911 0 0 1-.434-.793c-.027-.497.41-.915.95-.915ZM17.308.918c.54 0 .973.422.973.941 0 .52-.433.918-.972.918a.897.897 0 0 1-.567-.175.875.875 0 0 1-.383-.743c0-.52.41-.941.95-.941ZM8.59 7.438h4.617l4.023 6.046-4.023 6.024H7l-2.922-4.363c.461-.422.715-1.016.715-1.66 0-.645-.254-1.239-.715-1.66l2.05-3.098c.204.074.384.097.59.097A1.94 1.94 0 0 0 8.59 7.438ZM6.719 6.046c.539 0 .972.422.972.941 0 .524-.433.942-.972.942a.92.92 0 0 1-.512-.149.895.895 0 0 1-.437-.765.96.96 0 0 1 .949-.97ZM.973 13.484c0-.77.644-1.386 1.437-1.386.281 0 .54.074.77.222.41.246.668.692.668 1.164 0 .47-.258.918-.668 1.164-.23.149-.489.223-.77.223-.793 0-1.437-.617-1.437-1.387ZM2.87 26.027a.957.957 0 0 1-.973-.945c0-.52.434-.941.973-.941.207 0 .41.05.567.175a.875.875 0 0 1 .382.743c.028.546-.41.968-.949.968Zm14.922.914a.476.476 0 0 1-.484-.468c0-.149.074-.297.23-.399a.462.462 0 0 1 .254-.074c.258 0 .488.2.488.473 0 .273-.23.468-.488.468Zm4.36-.914h-3a1.435 1.435 0 0 0-1.36-.945c-.102 0-.23.027-.332.05l-3.434-5.155 4.024-6.047h6.207l4.023 6.047-2.898 4.363c-.281-.098-.563-.172-.871-.172-1.153 0-2.13.793-2.36 1.86Zm2.359 1.856c-.793 0-1.434-.617-1.434-1.387s.64-1.387 1.434-1.387c.281 0 .539.075.77.223.41.246.667.695.667 1.164 0 .77-.64 1.387-1.437 1.387ZM6.719 11.153h3.843v.945H6.72Zm4.82 0h1.922v.945h-1.922Zm-4.82 1.859h6.718v.941H6.72Zm5.793 1.86h.976v.94h-.976Zm-1.95 0h.977v.94h-.976Zm-3.843 0h2.87v.94H6.72Zm11.074 2.776h3.848v.942h-3.848Zm4.797 0h1.922v.942H22.59Zm-4.797 1.86h6.719v.941h-6.719Zm5.77 1.86h.976v.94h-.977Zm-1.922 0h.976v.94h-.976Zm-3.848 0h2.875v.94h-2.875Zm0 0" fill="#7dc792"/></svg>