<svg xmlns="http://www.w3.org/2000/svg" width="30" height="30" viewBox="0 0 30 29"><path d="M3.953 26.363c-.27 0-.406-.133-.68-.133-.136-.128-.41-.261-.41-.527-.136-.262-.136-.527-.136-.789 0-.266.136-.394.273-.66L25.227 3.03c.273-.261.546-.394.82-.394.27 0 .68.133.816.394.274.133.41.395.41.793 0 .395-.136.656-.41.79L4.773 25.968c-.136.133-.273.133-.41.261-.136.133-.273.133-.41.133Zm22.094 0c-.137 0-.274 0-.41-.133-.137 0-.274-.128-.41-.261L3.137 4.613c-.274-.261-.41-.527-.41-.789 0-.265.136-.66.41-.793.136-.261.41-.394.816-.394.41 0 .684.133.82.394l22.09 21.356a.99.99 0 0 1 .274.66v.656a1.763 1.763 0 0 1-.41.527c-.137 0-.41.133-.68.133Zm0 0"/></svg>