<svg xmlns="http://www.w3.org/2000/svg" width="30" height="30" viewBox="0 0 30 28"><path d="M25.824 4.71H5.348c-1.825 0-3.262 1.4-3.262 3.18v11.712c0 1.78 1.437 3.18 3.262 3.18h20.476c1.828 0 3.262-1.4 3.262-3.18V7.89c-.129-1.782-1.563-3.18-3.262-3.18ZM5.348 5.98h20.476c.914 0 1.7.637 1.828 1.528l-12.129 6.62-12.132-6.62c.261-.89 1.043-1.528 1.957-1.528Zm20.476 15.403H5.348c-1.043 0-1.957-.89-1.957-1.91V8.91l11.87 6.488c.13 0 .262.13.262.13.13 0 .258 0 .258-.13l12-6.488v10.563c0 1.144-.91 1.91-1.957 1.91Zm0 0"/></svg>