<svg xmlns="http://www.w3.org/2000/svg" width="30" height="30"><path d="M15.168 5.66h-1.98l1.019-2.039c.059-.168.059-.34 0-.453-.113-.113-.227-.223-.395-.223-.171 0-.285.11-.398.223l-1.36 2.719c-.054.113-.054.281 0 .453a.48.48 0 0 0 .4.226h1.98l-1.02 2.04c-.113.226 0 .507.227.62.226.114.511 0 .625-.226l1.355-2.719c.059-.113.059-.281 0-.449-.168-.113-.281-.172-.453-.172ZM8.832 3.848c.223 0 .45-.227.45-.453 0-.227-.227-.45-.45-.45H6.113a.894.894 0 0 0-.906.903v4.53c0 .509.398.903.906.903h2.719c.223 0 .45-.226.45-.449 0-.227-.227-.453-.45-.453H6.113V3.848Zm12.676-.903h-2.715c-.227 0-.453.223-.453.45 0 .226.226.453.453.453h2.715v4.53h-2.715a.487.487 0 0 0-.453.454c0 .223.226.45.453.45h2.715a.891.891 0 0 0 .906-.903V3.848a.891.891 0 0 0-.906-.903Zm8.605 2.715H26.04v-.453a1.38 1.38 0 0 0-1.36-1.36h-.452v-.902a1.79 1.79 0 0 0-1.813-1.812H5.207a1.79 1.79 0 0 0-1.812 1.812v6.336a1.79 1.79 0 0 0 1.812 1.813H7.02v1.812H4.754c-.395 0-.734.168-1.02.453-.28.282-.394.68-.34 1.02l1.192 12.676c.055.68.621 1.246 1.36 1.246h4.867c.68 0 1.3-.508 1.355-1.246l1.191-12.676c.055-.399-.113-.738-.34-1.02-.285-.285-.624-.453-1.019-.453H9.734v-1.812h8.153v1.812H15.62c-.394 0-.734.168-1.016.453a1.18 1.18 0 0 0-.34 1.02l1.188 12.676c.055.68.621 1.246 1.36 1.246h4.867c.68 0 1.3-.508 1.36-1.246l1.187-12.676c.054-.399-.114-.738-.34-1.02-.282-.285-.621-.453-1.02-.453h-2.262v-1.812h1.81a1.79 1.79 0 0 0 1.812-1.813V8.38h.453a1.38 1.38 0 0 0 1.36-1.36v-.453h4.073a.487.487 0 0 0 .453-.453.487.487 0 0 0-.453-.453ZM11.266 27c0 .227-.227.395-.454.395H5.946c-.226 0-.453-.168-.453-.395l-.512-5.66.06.055c.339.34.847.566 1.3.566.453 0 .96-.227 1.3-.566.173-.227.454-.34.739-.34.281 0 .566.113.734.34.34.34.793.566 1.301.566.512 0 .965-.227 1.305-.566l.054-.055ZM12 13.812c.113 0 .227.055.34.168.113.114.113.227.113.34l-.566 5.946c-.282.113-.567.28-.735.507-.172.227-.453.34-.738.34-.281 0-.566-.113-.734-.34-.34-.34-.793-.566-1.301-.566-.512 0-.965.227-1.305.566-.168.227-.453.34-.734.34-.285 0-.567-.113-.735-.34a2.138 2.138 0 0 0-.738-.507l-.566-5.946c0-.113.058-.226.113-.34.113-.113.227-.168.34-.168H7.02v4.075c0 .734.62 1.36 1.359 1.36.734 0 1.355-.626 1.355-1.36v-4.075Zm-4.074 0h.906v4.075a.487.487 0 0 1-.453.453.487.487 0 0 1-.453-.453Zm.906-.906h-.906v-1.812h.906ZM22.132 27c0 .227-.226.395-.452.395h-4.867c-.227 0-.454-.168-.454-.395l-.511-5.66.058.055c.34.34.848.566 1.301.566.512 0 .961-.227 1.3-.566.173-.227.454-.34.74-.34.28 0 .566.113.733.34.34.34.793.566 1.301.566.512 0 .965-.227 1.305-.566l.055-.055Zm.735-13.188c.113 0 .227.055.34.168.113.114.113.227.113.34l-.566 5.946c-.281.113-.567.28-.734.507-.172.227-.454.34-.739.34a.915.915 0 0 1-.734-.34c-.34-.34-.793-.566-1.3-.566-.513 0-.966.227-1.302.566-.172.227-.453.34-.738.34-.281 0-.566-.113-.734-.34a2.138 2.138 0 0 0-.739-.507l-.566-5.946c0-.113.059-.226.113-.34.114-.113.227-.168.34-.168h2.266v4.075c0 .734.62 1.36 1.36 1.36a1.38 1.38 0 0 0 1.358-1.36v-4.075Zm-4.074 0h.906v4.075a.487.487 0 0 1-.453.453.487.487 0 0 1-.453-.453Zm.906-.906h-.906v-1.812h.906Zm3.621-3.625a.892.892 0 0 1-.906.906H5.207a.895.895 0 0 1-.906-.906V2.945c0-.511.398-.906.906-.906h17.207c.512 0 .906.395.906.906Zm1.813-2.261a.487.487 0 0 1-.453.453h-.453v-2.72h.453c.226 0 .453.227.453.454Zm0 0"/></svg>