<svg xmlns="http://www.w3.org/2000/svg" width="30" height="30"><path d="m17 25.3-6.367-9.866V7.5A.632.632 0 0 0 10 6.867H6.867a.632.632 0 0 0-.633.633v7.965l-5.8 9.902c-.266.465-.434 1-.434 1.567A3.06 3.06 0 0 0 3.066 30h11.368c.601 0 1.168-.168 1.632-.5 1.47-.898 1.868-2.766.934-4.2Zm-2.535 3.434H3.066c-.332 0-.632-.101-.933-.27C1.266 28 1 26.868 1.5 26l5.898-10.035a.558.558 0 0 0 .102-.332v-7.5h1.867v7.5c0 .133.031.234.098.332L15.965 26c.203.3.3.633.3.965-.03.969-.831 1.77-1.8 1.77ZM9 18.168l-1.066-.633-5.301 9.031a.633.633 0 0 0 .535.969H7.5v-1.234H4.266Zm19.5-3.8h-9.734a2.518 2.518 0 0 0-2.5 2.5v10A3.13 3.13 0 0 0 19.398 30H25a3.127 3.127 0 0 0 3.133-3.133v-8.469l1.433-1.433A1.54 1.54 0 0 0 30 15.898c0-.832-.668-1.53-1.5-1.53Zm.168 1.698-1.602 1.602a.553.553 0 0 0-.168.434v8.73a1.861 1.861 0 0 1-1.863 1.867h-5.668a1.862 1.862 0 0 1-1.867-1.867v-10c0-.7.566-1.23 1.266-1.23H28.5c.066 0 .133.03.2.066.066.133.066.297-.032.398Zm-4.3 2.067v8.133H22.5V27.5H25a.632.632 0 0 0 .633-.633v-8.734ZM17.5 9.066V.633A.632.632 0 0 0 16.867 0H12.5a.632.632 0 0 0-.633.633v8.601c-.765.23-1.5.567-2.199.965l.633 1.067c.734-.434 1.531-.73 2.332-.965a.646.646 0 0 0 .469-.602V1.234h3.132v8.301c0 .297.2.567.5.598a9.503 9.503 0 0 1 5.567 3.332l.965-.766A10.384 10.384 0 0 0 17.5 9.066Zm9.066-.332c-1.199 0-2.199.965-2.199 2.2 0 1.199.965 2.199 2.2 2.199 1.199 0 2.199-.965 2.199-2.2 0-1.199-1-2.199-2.2-2.199Zm0 3.133a.933.933 0 1 1 0-1.867.933.933 0 0 1 0 1.867Zm-2.199-7.5A1.862 1.862 0 0 0 22.5 6.234a1.867 1.867 0 1 0 3.734 0c.032-1.035-.836-1.867-1.867-1.867Zm0 2.5A.632.632 0 1 1 25 6.234a.611.611 0 0 1-.633.633ZM2.2 5C.965 5 0 5.965 0 7.2c0 1.198.965 2.198 2.2 2.198 1.198 0 2.198-.964 2.198-2.199C4.368 5.965 3.398 5 2.2 5Zm0 3.133a.933.933 0 1 1 0-1.867c.5 0 .934.433.934.933s-.434.934-.934.934ZM5 .633A1.862 1.862 0 0 0 3.133 2.5c0 1.035.832 1.867 1.867 1.867A1.862 1.862 0 0 0 6.867 2.5 1.862 1.862 0 0 0 5 .633Zm0 2.5a.632.632 0 1 1 0-1.266c.367 0 .633.266.633.633s-.301.633-.633.633Zm15.633 15h-1.867v1.265h1.867Zm-.633 2.5h-1.234v1.234H20Zm.633 2.5h-1.867v1.234h1.867Zm-.633 2.5h-1.234v1.265H20ZM2.5 11.234H1.266v1.23H2.5Zm1.867 3.133H3.133v1.266h1.234ZM15 16.867h-1.266v1.235H15Zm-1.234-2.5h-1.23v1.266h1.23Zm-.633-2.5h-1.266v1.235h1.266Zm.633 13.766h-1.23v1.265h1.23Zm-1.899-2.5h-1.234v1.234h1.234Zm0 0" fill="#ffef00"/></svg>