<svg xmlns="http://www.w3.org/2000/svg" width="30" height="30" viewBox="0 0 30 29"><path d="M10.5 10.281c.273-.261.684-.261.816 0l7.774 7.516c.273.262.273.656 0 .789-.274.266-.68.266-.817 0L10.5 11.074c-.273-.133-.273-.527 0-.793Zm0 8.438c-.273-.266-.273-.66 0-.793l7.773-7.512c.274-.266.68-.266.817 0 .273.262.273.66 0 .79l-7.774 7.515c-.27.133-.68.133-.816 0Zm4.5 7.644c-6.816 0-12.273-5.273-12.273-11.863S8.184 2.637 15 2.637 27.273 7.91 27.273 14.5 21.816 26.363 15 26.363Zm0-22.41C9 3.953 4.09 8.7 4.09 14.5 4.09 20.3 9 25.047 15 25.047S25.91 20.3 25.91 14.5C25.91 8.7 21 3.953 15 3.953Zm0 0"/></svg>