<svg xmlns="http://www.w3.org/2000/svg" width="30" height="30" viewBox="0 0 30 29"><path d="M10.637 10.148c.273-.261.816-.261 1.226 0l7.5 7.25c.274.266.274.793 0 1.188-.273.266-.816.266-1.226 0l-7.5-7.25c-.274-.395-.274-.922 0-1.188Zm-.41 8.305c-.274-.262-.274-.789 0-1.183l7.5-7.122c.273-.261.82-.261 1.226 0 .274.266.274.793 0 1.188l-7.5 7.117c-.27.399-.816.399-1.226 0ZM15 26.363c-6.816 0-12.273-5.273-12.273-11.863S8.184 2.637 15 2.637 27.273 7.91 27.273 14.5 21.816 26.363 15 26.363Zm0-22.41C9 3.953 4.09 8.7 4.09 14.5 4.09 20.3 9 25.047 15 25.047S25.91 20.3 25.91 14.5C25.91 8.7 21 3.953 15 3.953Zm0 0" fill="#e76e5c"/></svg>