<svg xmlns="http://www.w3.org/2000/svg" width="30" height="30"><path d="M15 30C6.71 30 0 23.29 0 15S6.71 0 15 0s15 6.71 15 15-6.71 15-15 15ZM15 .79C7.184.79.79 7.183.79 15c0 7.816 6.394 14.21 14.21 14.21 7.816 0 14.21-6.394 14.21-14.21C29.21 7.184 22.817.79 15 .79Zm0 0"/><path d="M15.395 19.027c-.157 0-.239-.078-.317-.16l-4.734-4.656a.477.477 0 0 1 0-.633c.156-.156.472-.156.629 0l4.343 4.344 4.34-4.344c.16-.156.477-.156.633 0 .16.16.16.473 0 .633l-4.656 4.656c0 .082-.082.16-.238.16Zm0 0"/></svg>