<svg xmlns="http://www.w3.org/2000/svg" width="30" height="30"><path d="M13.332 11.277c0-1.5-1.223-2.722-2.723-2.722a2.724 2.724 0 0 0-2.718 2.722c0 1.5 1.218 2.723 2.718 2.723 1.446.055 2.723-1.223 2.723-2.723Zm-4.441 0c0-.945.777-1.668 1.664-1.668.945 0 1.668.782 1.668 1.668 0 .946-.778 1.668-1.668 1.668-.946 0-1.664-.722-1.664-1.668ZM10.332 21.5H8.055v-3.277a.437.437 0 0 0-.446-.446.439.439 0 0 0-.441.446V21.5h-.945c-.055 0-.114-.055-.114-.11v-3.167c0-1.391 1.168-2.555 2.559-2.555h3.664c.5 0 .945.164 1.39.441.11.059.223.114.278.114a.505.505 0 0 0 .445-.223c.164-.223.11-.555-.168-.723-.609-.386-1.277-.609-2-.609H8.61c-2 0-3.609 1.61-3.609 3.61v3.167c0 .61.5 1.164 1.168 1.164h4.11a.554.554 0 0 0 .554-.554c0-.332-.223-.555-.5-.555Zm9.613-4.332c1.387 0 2.5-1.113 2.5-2.5a2.49 2.49 0 0 0-2.5-2.5c-1.39 0-2.5 1.11-2.5 2.5-.054 1.387 1.11 2.5 2.5 2.5Zm0-4c.832 0 1.446.664 1.446 1.441 0 .782-.668 1.5-1.446 1.5a1.431 1.431 0 0 1-1.445-1.441c0-.777.61-1.5 1.445-1.5Zm3.946 5.5c-.614-.613-1.446-1-2.336-1H17.89c-.282.055-.5.277-.446.61.055.277.278.445.5.445H21.5c.61 0 1.168.222 1.555.668.39.441.668 1 .668 1.609v2.89h-.614V21a.436.436 0 0 0-.441-.445.44.44 0 0 0-.445.445v2.89h-2.391a.554.554 0 1 0 0 1.11h3.836c.61 0 1.11-.5 1.11-1.11V21a3.014 3.014 0 0 0-.887-2.332Zm-11.114 0A2.111 2.111 0 1 0 17 18.664a2.111 2.111 0 0 0-4.223.004Zm2.114-1.059a1.056 1.056 0 0 1 0 2.114c-.614 0-1.059-.5-1.059-1.055 0-.613.445-1.059 1.059-1.059ZM18.109 22c-.5-.5-1.218-.832-1.941-.832H13.5a2.786 2.786 0 0 0-2.777 2.777v2.278c0 .554.445 1 1 1h6.168c.554 0 .941-.446.941-1v-2.278A2.5 2.5 0 0 0 18.109 22Zm-4.554.223h2.668c.445 0 .886.168 1.168.5.332.332.5.722.5 1.222v2.223h-.336v-2.223a.437.437 0 0 0-.446-.445.439.439 0 0 0-.441.445v2.223h-3.5v-2.223a.44.44 0 0 0-.445-.445.44.44 0 0 0-.446.445v2.223h-.5v-2.223c.055-.945.832-1.722 1.778-1.722Zm11.836-13-3.114-1.5v-3.5c0-.5-.386-.891-.886-.891h-2.168c-.5 0-.891.39-.891.89v1.5l-3.11-1.5a1.055 1.055 0 0 0-1 0l-10 4.887c-.277.114-.39.5-.277.782.11.218.278.332.5.332.055 0 .164 0 .223-.055l10-4.89 3.887 1.89h.554L19.277 7V4.445H21v3.832h.055l3.39 1.668c.055.055.164.055.223.055.223 0 .387-.11.5-.332.61.055.5-.277.223-.445Zm0 0"/></svg>