<svg xmlns="http://www.w3.org/2000/svg" width="30" height="30" viewBox="0 0 30 29"><path d="M12.547 15.688H10.09c-.406 0-.543-.133-.543-.528v-2.77c0-.394.137-.527.543-.527h2.457V9.887c0-.922.137-1.848.68-2.637.546-.79 1.226-1.45 2.32-1.715.543-.129 1.226-.262 1.906-.262h2.457c.406 0 .543.133.543.528v2.636c0 .262-.137.528-.543.528h-2.047c-.68 0-1.09.262-1.09.922v2.11h3c.41 0 .543.132.543.526v2.766c0 .399-.132.527-.543.527h-3v7.516c0 .395-.136.527-.546.527H13.09c-.406 0-.543-.132-.543-.527Zm0 0"/></svg>