<svg xmlns="http://www.w3.org/2000/svg" width="30" height="30" viewBox="0 0 30 29"><path d="M1.91 15.816c0 .793.274 1.582.68 2.243.41.66 1.094 1.187 1.91 1.449.816.265 1.637.398 2.453.265.82-.132 1.637-.527 2.184-1.054.547-.528.953-1.32 1.09-2.11.136-.793.136-1.582-.274-2.37-.406-.794-.816-1.321-1.5-1.848-.68-.395-1.5-.66-2.316-.66-1.09 0-2.184.398-3 1.187a4.01 4.01 0 0 0-1.227 2.898Zm7.5 0c0 .66-.137 1.188-.547 1.715-.41.528-.816.922-1.5 1.188-.547.261-1.226.261-1.91.133-.68-.133-1.226-.399-1.637-.926-.406-.395-.816-1.055-.953-1.582-.136-.657 0-1.317.137-1.844a4.173 4.173 0 0 1 1.227-1.45c.546-.132 1.226-.394 1.91-.394.816 0 1.636.395 2.316.922.547.66.957 1.45.957 2.238Zm13.09 5.54c1.09 0 2.184-.266 3.137-.922.953-.66 1.636-1.454 2.047-2.508.406-1.055.543-2.11.27-3.164-.27-1.051-.817-1.977-1.5-2.766-.817-.793-1.77-1.32-2.864-1.45-1.09-.265-2.18-.132-3.274.263-1.09.394-1.906 1.054-2.59 1.976-.68.926-.953 1.977-.953 3.031 0 1.454.543 2.77 1.637 3.825 1.227 1.054 2.59 1.714 4.09 1.714Zm0-10.02c.953 0 1.773.266 2.59.793.82.527 1.363 1.184 1.773 1.976.41.79.41 1.711.274 2.637-.137.922-.684 1.711-1.227 2.371a4.292 4.292 0 0 1-2.457 1.188c-.953.133-1.906.133-2.726-.266-.817-.394-1.637-.922-2.043-1.71-.41-.794-.82-1.583-.82-2.509 0-1.183.546-2.37 1.363-3.16a4.845 4.845 0 0 1 3.273-1.32ZM4.773 13.973l-.683.66 1.363 1.316-1.363 1.32.683.657 1.364-1.317L7.5 17.926l.547-.79-1.363-1.32L8.047 14.5l-.684-.66L6 15.16Zm16.364 4.218c.136 0 .273 0 .273-.132l3.953-3.82-.68-.66-3.546 3.558-.953-.922-.684.656 1.363 1.32ZM5.59 25.836v-4.48h-.953v4.085h-.41c-.137 0-.137 0-.274.133-.137 0-.137.13-.137.13v.265c0 .133 0 .133.137.261l1.91 2.243.137.132h.273l.137-.132 1.906-2.243c0-.128.137-.128.137-.261v-.266c0-.129-.137-.129-.137-.129-.132 0-.132-.133-.27-.133H7.5v-4.086h-.953v4.48c0 .134 0 .267.137.267.132.128.132.128.27.128L6 27.285l-.953-1.055c.137 0 .27 0 .27-.128.273 0 .273-.133.273-.266Zm17.863-21.75v5.008h.957V4.48h.953c.137 0 .137 0 .274-.128.136 0 .136-.133.136-.133v-.266c0-.129 0-.129-.136-.262L22.773.527l-.136-.132h-.274s-.136 0-.136.132l-2.864 3.164s-.136.133-.136.262v.266c0 .133.136.133.136.133.137 0 .137.128.274.128h.953v4.485h.957v-4.88c0-.132 0-.26-.137-.26-.137-.134-.273-.134-.273-.134h-.41L22.5 1.715l1.773 1.976h-.41c-.136 0-.273 0-.273.133-.137 0-.137.13-.137.262Zm-12.27 11.336h.954v.922h-.953Zm1.907 0h.957v.922h-.957Zm1.91 0h.953v.922H15Zm0 0"/></svg>