<svg xmlns="http://www.w3.org/2000/svg" width="30" height="30"><path d="M21.7 15.7H8.3c-.152 0-.3-.098-.3-.302 0-.148.148-.296.3-.296H21l-1.75-1.704c-.102-.097-.102-.296 0-.398.102-.102.3-.102.398 0l2.25 2.148c.102.102.102.204.051.301 0 .2-.097.25-.25.25Zm0 0"/><path d="M19.45 17.852a.375.375 0 0 1-.2-.102c-.102-.102-.102-.3 0-.398l2.25-2.153c.102-.097.3-.097.398 0 .102.102.102.301 0 .403l-2.25 2.148c-.046.102-.097.102-.199.102Zm0 0"/><path d="M15.25 29C7.648 29 1.5 22.852 1.5 15.25S7.648 1.5 15.25 1.5 29 7.648 29 15.25 22.852 29 15.25 29Zm0-27C7.95 2 2 7.95 2 15.25S7.95 28.5 15.25 28.5 28.5 22.55 28.5 15.25 22.55 2 15.25 2Zm0 0"/></svg>