<svg xmlns="http://www.w3.org/2000/svg" width="30" height="30"><path d="m29.965 24.133-.863-3.668a1.179 1.179 0 0 0-1.137-.899h-1.633c.035-.168.066-.367 0-.566l-.867-3.668a1.17 1.17 0 0 0-1.133-.898h-1.664a1.72 1.72 0 0 0 0-.567l-.867-3.668c-.102-.5-.567-.867-1.133-.867h-1.27a.446.446 0 0 0-.433.434c0 .234.203.433.433.433h1.27c.133 0 .23.102.266.2l.867 3.667c.031.102-.035.2-.067.235-.035.031-.101.097-.234.097h-5.766c-.132 0-.199-.066-.234-.097-.035-.035-.066-.133-.066-.235l.867-3.668c.031-.132.133-.199.265-.199h1.036c.23 0 .433-.199.433-.433 0-.23-.137-.434-.402-.434h-1.031c-.536 0-1 .367-1.137.902L15 12.168l-.465-1.969a1.179 1.179 0 0 0-1.137-.898H9.332c-.531 0-1 .367-1.133.898l-.867 3.668c-.031.2-.031.367 0 .567H5.699c-.531 0-1 .367-1.133.898L3.7 19a1.72 1.72 0 0 0 0 .566H2.035c-.535 0-1 .368-1.137.899l-.863 3.668c-.07.332 0 .699.23 1 .235.265.567.433.903.433H7c.266 0 .535-.101.734-.265.2.164.465.265.73.265H10a.44.44 0 0 0 .434-.433.44.44 0 0 0-.434-.434H8.465c-.133 0-.2-.066-.23-.097-.036-.036-.067-.137-.067-.235l.867-3.668c.031-.133.133-.199.266-.199h4.097c.137 0 .235.102.27.2l.867 3.667c.031.098-.035.2-.07.235-.031.03-.098.097-.23.097h-2.536a.44.44 0 0 0-.433.434c0 .234.199.433.433.433h2.535c.266 0 .532-.101.73-.265.204.164.47.265.735.265h5.867c.266 0 .536-.101.735-.265.199.164.465.265.734.265h5.832c.367 0 .7-.168.899-.433.199-.301.3-.668.199-1Zm-7.7-1.735-.464-1.964v-.036h.965v.036Zm-9.3-7.097H14.8L12.1 18l.598-2.5a.289.289 0 0 1 .266-.2Zm1.601-1.2c.036.098-.03.2-.066.231a.306.306 0 0 1-.234.102h-3.032l2.73-2.735Zm-2.734 1.2c0 .031 0 .031 0 0l-.465 1.965-.469-1.934h.934Zm6.836 2-.469-1.969h.934Zm-.469 1.898c.035.102-.031.2-.066.235-.031.03-.098.101-.235.101h-3.03l2.734-2.734Zm-1.597 1.235h2l-2.934 2.898.664-2.664c.035-.133.133-.234.27-.234Zm4.964-5.133h2.766c.133 0 .234.097.27.199l.863 3.668c.035.098-.031.2-.067.23a.288.288 0 0 1-.23.102h-5.8c-.134 0-.2-.066-.235-.102-.031-.03-.067-.132-.067-.23l.868-3.668c.03-.133.132-.2.265-.2Zm-4.234.234.066.266-3.765 3.734h-1.531a.282.282 0 0 1-.204-.07l4.168-4.164h1c.133 0 .235.097.266.234Zm-3.664-5.101.066.265L10 14.434H8.434c-.102 0-.168-.036-.2-.067l4.164-4.168h1c.137 0 .235.102.27.235Zm-4.633 0c.031-.133.133-.2.266-.2h1.867l-2.734 2.73Zm-4.5 8.765.863-3.664c.036-.137.137-.203.27-.203h4.098c.132 0 .234.102.27.203l.862 3.664c.036.102-.03.2-.066.235-.031.03-.098.101-.23.101H4.8c-.133 0-.2-.07-.235-.101 0-.036-.066-.133-.03-.235Zm-2.77 1.469c.036-.133.133-.203.27-.203h1.797l-2.664 2.668Zm-.831 3.898 4.132-4.132h1.036c.132 0 .23.101.265.199l.067.234-3.766 3.801h-1.5a.298.298 0 0 1-.234-.102Zm6.3 0a.306.306 0 0 1-.234.102H3.898l2.77-2.77.566 2.434c.067.102.032.203 0 .234Zm.5-2.168-.468-1.964v-.036h.968v.036Zm6.801-1.933c0-.031 0-.031 0 0l.93-.031v.03L15 22.399Zm1.067 4.203 4.199-4.203h.867c.133 0 .23.101.266.203l.101.398-3.637 3.602Zm6.164-.102a.27.27 0 0 1-.2.102h-2.898l2.633-2.633.531 2.266a.275.275 0 0 1-.066.265Zm7.3 0a.298.298 0 0 1-.234.102H23c-.133 0-.2-.066-.234-.102-.032-.03-.067-.132-.067-.234l.867-3.664a.257.257 0 0 1 .266-.203h4.102c.132 0 .234.101.265.203l.867 3.664c.067.102.036.203 0 .234ZM11.036 7.633c.23 0 .429-.2.429-.434V6.066a.44.44 0 0 0-.43-.433.44.44 0 0 0-.433.433V7.2c0 .235.199.434.433.434Zm2.632 0c.23 0 .434-.2.434-.434V4.9a.446.446 0 0 0-.434-.434.443.443 0 0 0-.434.433V7.2c0 .235.2.434.434.434Zm2.664 0a.44.44 0 0 0 .434-.434V4.9c0-.231-.2-.434-.434-.434a.446.446 0 0 0-.434.433V7.2c-.03.235.168.434.434.434Zm2.633 0a.44.44 0 0 0 .433-.434V6.066a.44.44 0 0 0-.433-.433c-.23 0-.43.199-.43.433V7.2c-.035.235.164.434.43.434Zm0 0" fill="#e76e5c"/></svg>