<svg xmlns="http://www.w3.org/2000/svg" width="30" height="30" viewBox="0 0 30 29"><path d="M30.797 11.493c0-2.5 2-4.488 4.5-4.488s4.5 1.987 4.5 4.488c0 2.5-2 4.504-4.5 4.504s-4.5-2.004-4.5-4.504Zm2.5 0a2.01 2.01 0 0 0 2 2.003 1.996 1.996 0 1 0 0-3.991c-1.094 0-2 .898-2 1.988ZM85.907 5c0-2.5 2-4.504 4.5-4.504s4.5 2.004 4.5 4.504c0 2.5-2 4.504-4.5 4.504s-4.5-2.003-4.5-4.504Zm2.5 0a2 2 0 0 0 2 2.004c1.093 0 2-.898 2-2.004a2.01 2.01 0 0 0-2-2.004 2 2 0 0 0-2 2.004ZM26.906 39c0 .705-.61 1.394-1.407 1.394-.703 0-1.406-.593-1.406-1.394 0-.705.61-1.395 1.406-1.395.797 0 1.406.593 1.406 1.395Zm0-33.998c0 .705-.61 1.395-1.407 1.395-.703 0-1.406-.593-1.406-1.395 0-.801.61-1.394 1.406-1.394.797.096 1.406.689 1.406 1.394Zm37.296 10.595c0 .706-.61 1.41-1.406 1.41-.703 0-1.39-.608-1.39-1.41 0-.689.593-1.394 1.39-1.394.797.096 1.406.705 1.406 1.394Zm21.39-.801c0 .705-.593 1.41-1.39 1.41-.797 0-1.406-.609-1.406-1.41 0-.69.61-1.395 1.406-1.395.797 0 1.39.593 1.39 1.395ZM95.798 64.1c0 .706-.594 1.395-1.39 1.395-.813 0-1.407-.593-1.407-1.395 0-.705.594-1.394 1.406-1.394.797 0 1.39.593 1.39 1.394Zm-5.39-24.492c0 .69-.61 1.394-1.407 1.394s-1.406-.609-1.406-1.394c0-.705.61-1.41 1.406-1.41.797 0 1.406.705 1.406 1.41Zm22.187 67.194V75a1.79 1.79 0 0 0-1.797-1.795c-1 0-1.797.801-1.797 1.795v31.802H10.406V62c0-2.1 1.688-3.896 3.89-3.896h2.298v29.398c0 5.802 4.703 10.403 10.406 10.403 5.797 0 10.406-4.713 10.406-10.403V58.105H49v29.398c0 5.802 4.703 10.403 10.406 10.403 5.89.096 10.594-4.6 10.594-10.403V58.105h11.594v29.398c0 5.802 4.61 10.499 10.406 10.499 5.797 0 10.406-4.697 10.406-10.403V58.105h2.688c2.11 0 3.906 1.7 3.906 3.896v5.498a1.79 1.79 0 0 0 1.797 1.795c1 0 1.797-.802 1.797-1.795V62a7.382 7.382 0 0 0-7.39-7.406H102.5V29.494c1.594-.802 2.797-2.389 2.797-4.296v-.193c0-2.612-2.094-4.808-4.797-4.808H83.594a4.804 4.804 0 0 0-4.797 4.808v.097c0 1.891 1.11 3.59 2.797 4.295V54.5H70V29.494c1.594-.802 2.797-2.389 2.797-4.296v-.193c0-2.612-2.094-4.808-4.797-4.808H51.094a4.804 4.804 0 0 0-4.797 4.808v.097c0 1.891 1.11 3.59 2.797 4.295V54.5H37.5v-15.5a1.79 1.79 0 0 0-1.797-1.795c-1 0-1.797.801-1.797 1.795V62.4H20.203V30.006H34v2.196a1.79 1.79 0 0 0 1.797 1.796c1 0 1.797-.802 1.797-1.796v-2.596c1.61-.802 2.812-2.405 2.812-4.312v-.289a4.81 4.81 0 0 0-4.812-4.808h-16.89c-2.61 0-4.798 2.1-4.798 4.808v.097c0 1.891 1.094 3.59 2.797 4.295V54.5h-2.297A7.385 7.385 0 0 0 7 61.904v44.898c-4 .897-7 4.392-7 8.591v1.106a1.79 1.79 0 0 0 1.797 1.796h116.5c1 0 1.797-.802 1.797-1.796v-1.106c-.094-4.295-3.297-7.998-7.5-8.591Zm-13.688-19.3c0 3.8-3.11 6.893-6.906 6.893-3.797 0-6.906-3.093-6.906-6.892v-9.505H99v9.505Zm-16.61-62.497c0-.705.61-1.298 1.298-1.298h16.812c.688 0 1.297.593 1.297 1.298v.097c0 .705-.61 1.298-1.297 1.298h-7.5a1.803 1.803 0 1 0 0 3.606h6v44.497H85.094V30.006h.703c1 0 1.797-.801 1.797-1.81a1.79 1.79 0 0 0-1.797-1.796h-2.203c-.688 0-1.297-.593-1.297-1.298ZM59.5 94.508c-3.797 0-6.906-3.11-6.906-6.909V48.103H66.5V87.6c0 3.703-3.094 6.909-7 6.909Zm-6.906-49.915V30.006H66.5v14.587Zm-2.797-19.588c0-.705.61-1.298 1.297-1.298h16.812c.688 0 1.297.593 1.297 1.298v.097c0 .705-.61 1.298-1.297 1.298H51.094c-.688 0-1.297-.593-1.297-1.298ZM34 65.8v21.704c0 3.799-3.094 6.892-6.906 6.892-3.797 0-6.89-3.093-6.89-6.892V65.799ZM17.406 25.005c0-.705.594-1.298 1.297-1.298H35.5c.703 0 1.297.593 1.297 1.298v.097c0 .705-.594 1.298-1.297 1.298H18.703a1.314 1.314 0 0 1-1.297-1.298ZM3.5 114.8a5.128 5.128 0 0 1 4.703-4.504h103.094c2.61 0 4.797 2.004 5.11 4.6H3.5Zm0 0" transform="scale(.25 .2437)" fill="#8cd6ed" stroke="#8cd6ed"/></svg>