<svg xmlns="http://www.w3.org/2000/svg" width="30" height="30"><path d="m29.945 29.39-4.39-11.558a.42.42 0 0 0-.387-.277h-6.113l3-4.778a8.397 8.397 0 0 0 1.277-4.445A8.322 8.322 0 0 0 15 0a8.322 8.322 0 0 0-8.332 8.332c0 1.559.441 3.113 1.277 4.445 0 .055 3 4.778 3 4.778H4.832a.42.42 0 0 0-.387.277l-2.39 6.277c-.11.223.054.5.277.559.059 0 .113.055.168.055a.425.425 0 0 0 .39-.278l2.278-6h6.387l.554.887h-1.554c-.223 0-.387.168-.446.336l-.832 4.5c0 .11 0 .277.114.387.109.113.218.168.332.168H20.5c.11 0 .277-.055.332-.168.113-.11.113-.223.113-.387l-.836-4.5c-.054-.223-.218-.336-.441-.336h-1.559l.559-.887h6.387l4.054 10.664H1.055l1.113-2.886c.11-.223-.059-.5-.277-.555-.223-.113-.5.055-.559.277L0 29.445c0 .11 0 .223.055.387a.503.503 0 0 0 .39.168h29.11a.503.503 0 0 0 .39-.168.614.614 0 0 0 0-.441ZM8.668 12.333c-.777-1.164-1.168-2.555-1.168-4A7.443 7.443 0 0 1 14.945.891a7.445 7.445 0 0 1 7.446 7.441c0 1.39-.391 2.777-1.168 4-.055.059-5.891 9.39-5.946 9.445-.054.114-.222.223-.386.223-.168 0-.282-.055-.391-.223.11-.054-5.777-9.386-5.832-9.445Zm10.5 7.89.664 3.61h-9.664l.664-3.61h1.777l1.282 2c.218.387.664.61 1.109.61.445 0 .89-.223 1.11-.61 0-.054 1.28-2 1.28-2ZM8.832 25.946 8.5 27.723c0 .109 0 .277.11.386.113.114.222.168.335.168H27a.503.503 0 0 0 .39-.168c.055-.109.11-.277.055-.386l-.668-1.778a.414.414 0 0 0-.386-.277H9.277c-.222-.059-.386.11-.445.277Zm.836.555h16.387l.336.89H9.5Zm-6.445-.61-.668 1.778a.343.343 0 0 0 .054.387c.059.113.223.168.391.168h4.168a.48.48 0 0 0 .441-.332l.336-1.782c0-.109 0-.277-.113-.386-.11-.114-.223-.168-.332-.168H3.668c-.223.054-.336.168-.445.336Zm3.722.61-.168.89H3.61l.336-.89Zm1.723-7.168H6a.425.425 0 0 0-.39.277l-1.72 4.5c-.058.168 0 .336.055.446.055.113.223.168.387.168h3.5c.223 0 .39-.168.445-.332l.832-4.5c0-.114 0-.282-.109-.391-.055-.11-.168-.168-.332-.168Zm-1.223 4.5h-2.5l1.387-3.61h1.836Zm14.723.89h3.5a.495.495 0 0 0 .387-.167c.054-.11.113-.278.054-.387l-1.718-4.5a.42.42 0 0 0-.391-.277h-2.668c-.11 0-.277.054-.332.164-.055.113-.11.222-.11.39l.833 4.5c.054.11.222.278.445.278Zm1.5-4.5 1.387 3.61h-2.5l-.664-3.61ZM15 13.169a4.836 4.836 0 0 0 4.832-4.836A4.835 4.835 0 0 0 15 3.5a4.835 4.835 0 0 0-4.832 4.832A4.836 4.836 0 0 0 15 13.168Zm0-8.777c2.168 0 3.945 1.777 3.945 3.941A3.96 3.96 0 0 1 15 12.277a3.924 3.924 0 0 1-3.945-3.945c0-2.164 1.777-3.941 3.945-3.941Zm0 7.054a3.047 3.047 0 0 0 3.055-3.054c0-1.668-1.332-3.114-3.055-3.114a3.047 3.047 0 0 0-3.055 3.055c0 1.668 1.332 3.113 3.055 3.113Zm0-5.277c1.223 0 2.223 1 2.223 2.223 0 1.218-1 2.218-2.223 2.218-1.223 0-2.223-1-2.223-2.218 0-1.223 1-2.223 2.223-2.223Zm0 0" fill="#8cd6ed"/></svg>