<svg xmlns="http://www.w3.org/2000/svg" width="30" height="30" viewBox="0 0 30 28"><path d="M28.938 22.754c.238 0 .43-.188.43-.426v-5.547a.606.606 0 0 0-.602-.597h-1.817a.605.605 0 0 0-.597.597v3.09c-1.579 1.672-2.793 1.262-4.473.68-1.438-.492-3.05-1.055-5.121-.305v-3.465a.609.609 0 0 0-.602-.597h-1.918a.606.606 0 0 0-.601.597v1.86c-.188.101-.34.257-.375.289l-.48.48h-1.337a8.645 8.645 0 0 0-2.347-4.215v-2.183h.43a2.14 2.14 0 0 0 2.14-2.133v-.43l.152-.082c.43-.207.703-.648.703-1.129 0-.34-.324-.953-.53-1.226-.016-.02-.016-.035-.036-.051.309-.512.277-.941.293-1.266.016-.972-.46-1.328-.46-1.328l.065-.07c.43-.426.653-.988.653-1.586a2.246 2.246 0 0 0-2.246-2.234H7.129a6.19 6.19 0 0 0-1.867.304A2.58 2.58 0 0 0 3.117.641a2.56 2.56 0 0 0-2.57 2.558c0 .871.445 1.672 1.168 2.149a5.48 5.48 0 0 0-.309 1.859 5.685 5.685 0 0 0 3.168 5.106l.258.132v.72a4.192 4.192 0 0 0-2.57 3.702V26.25h-.856s-.43 0-.43.41c0 .445.43.445.43.445h27.36a.606.606 0 0 0 .601-.597v-2.492a.425.425 0 0 0-.43-.426.425.425 0 0 0-.43.426v2.234h-14.01v-3.41h1.386v1.586c0 .324.273.597.597.597h10.11a.606.606 0 0 0 .601-.597v-7.387h1.301v5.29a.45.45 0 0 0 .445.425ZM11.788 9.426c-.137.531-.945.582-.945.582v1.09c0 .511-.598 1.078-1.317 1.078H7.06s-.43 0-.43.39c0 .461.43.461.43.461h1.199v1.45a8.73 8.73 0 0 0-2.57-1.329v-2.902l-1.32-.988a.98.98 0 0 1-.391-.805c0-.543.445-.988.992-.988.547 0 .633.664.633.664v-.836H7.64s.308 1.144 1.664 1.723c.597.257 1.508.171 2.105-.375.05-.051.07-.051.121-.102.137.258.344.633.258.887ZM5.602 6.613c.02-.734.464-.855.941-.855h1.816l-.648.855Zm2.828.34.82-1.176h2.023s.567.578.172 1.703c-.207.618-1.199 1.247-2.074.618-.805-.567-.941-1.145-.941-1.145ZM1.406 3.2c0-.937.77-1.707 1.711-1.707.531 0 1.028.258 1.356.664a5.867 5.867 0 0 0-2.399 2.39A1.676 1.676 0 0 1 1.406 3.2Zm.856 3.992c0-2.68 2.175-4.847 4.867-4.847h3.152c.77 0 1.387.617 1.387 1.383 0 .375-.137.718-.41.972l-.207.207H7.402c-.136 0-.687-.02-1.199.032a1.709 1.709 0 0 0-1.371 1.675 1.844 1.844 0 0 0-1.715 1.84c0 .582.274 1.129.738 1.485l.977.718v.785a4.754 4.754 0 0 1-2.57-4.25Zm3 6.688a7.805 7.805 0 0 1 5.308 5.531H8.258a2.563 2.563 0 0 1-2.57-2.562s-.067-.426-.461-.375c-.395.05-.395.375-.395.375 0 1.879 1.543 3.414 3.426 3.414h4.285v1.707H8.258a5.141 5.141 0 0 1-5.14-5.035 3.321 3.321 0 0 1 2.144-3.055ZM3.117 26.234v-6.332a6.007 6.007 0 0 0 5.14 2.918h2.966c.066.325.187.922.324 1.809.137.754.187 1.281.223 1.605Zm10.52 0h-1.008a28.27 28.27 0 0 0-.242-1.757 76.053 76.053 0 0 0-.309-1.657h1.559Zm2.246-4.574c0 .137-.086.309-.36.309h-2.125v-1.961l.48-.48c.188-.188.481-.204.599.035.136.257.187.632.636.632h.39c.38 0 .38.375.38.375Zm0-2.285h-.41c-.309 0-.328-.258-.414-.41-.118-.223-.325-.36-.563-.426v-1.5h1.387v2.336Zm10.469 4.777h-9.594v-2.984c1.933-.82 3.406-.309 4.847.187.79.274 1.594.563 2.434.563.754 0 1.523-.223 2.328-.887v3.121Zm2.535-20.937h-2.5a.423.423 0 0 0-.43.426c0 .242.188.43.43.43h2.07v.867h-4.23V4.07h.582c.238 0 .43-.187.43-.43a.425.425 0 0 0-.43-.425H14.152a.423.423 0 0 0-.43.426v1.726c0 .238.188.426.43.426h4.368v.953L16.86 8.2a.462.462 0 0 0-.137.324v1.45c0 .547.48.8.77.886.034 0 .07.02.1.02h.294v3.344c0 .238.187.425.43.425h1.73a.422.422 0 0 0 .426-.425v-3.344h.156a.423.423 0 0 0 .426-.43.422.422 0 0 0-.426-.426h-.156v-.648a.422.422 0 0 0-.426-.426h-1.73a.423.423 0 0 0-.43.426v.648h-.223a.33.33 0 0 1-.086-.05V8.727l1.664-1.45a.487.487 0 0 0 .137-.324v-1.16h3.992v.953L21.707 8.2a.462.462 0 0 0-.137.324v1.45c0 .547.48.8.77.886.035 0 .07.02.105.02h.309v3.344c0 .238.187.425.426.425h1.73c.242 0 .43-.187.43-.425v-3.344h.137c.238 0 .43-.188.43-.43a.425.425 0 0 0-.43-.426h-.137v-.648a.423.423 0 0 0-.43-.426h-1.73a.422.422 0 0 0-.426.426v.648h-.242a.555.555 0 0 1-.086-.05V8.727l1.644-1.45a.491.491 0 0 0 .157-.324v-1.16h4.66c.238 0 .43-.188.43-.426V3.641a.438.438 0 0 0-.43-.426Zm-10.145 7.664V9.82h.875v3.977h-.875Zm-.222-5.941h-3.938V4.07h3.938Zm5.09 5.94V9.82h.874v3.977h-.875Zm-.239-5.94H19.38V4.07h3.992Zm0 0" fill="#e86e5c"/></svg>