<svg width="37" height="34" fill="none" xmlns="http://www.w3.org/2000/svg"><path d="M12.846 7.91h21.109l-11.531 9.055a1.543 1.543 0 0 1-.799.311 1.57 1.57 0 0 1-.804-.31l-8.24-6.474a.881.881 0 0 0-.295-.157c.388-.547.61-1.209.598-1.922a4.646 4.646 0 0 0-.038-.502ZM7.478 2.088c.026.005.07.021.165.065.188.09.486.319.778.639.588.64 1.176 1.611 1.481 2.252.01.019.02.04.028.06.866 1.486 1.24 2.623 1.251 3.335.012.716-.18 1.025-.787 1.373l-1.566.903c-1.02.587-1.502 1.64-1.622 2.622-.12.982.057 1.937.494 2.691l3.865 6.662c.438.755 1.186 1.386 2.1 1.773.914.388 2.071.498 3.091-.088l1.567-.9c.606-.349.973-.356 1.589.01.618.368 1.42 1.255 2.282 2.741.012.022.024.04.038.062.404.582.954 1.571 1.22 2.4.132.41.184.782.167.988-.018.206-.023.185-.077.218l-1.192.683c-2.993 1.298-5.737 1.005-8.19-.267-2.456-1.277-4.59-3.583-6.08-6.29-.005-.006-.007-.013-.01-.016l-3.261-5.62c-.006-.005-.008-.01-.013-.018-1.613-2.637-2.553-5.63-2.435-8.385.118-2.75 1.234-5.258 3.863-7.187l1.192-.68c.027-.016.036-.029.062-.026ZM7.49.413a1.777 1.777 0 0 0-.926.229l-1.261.725-.08.049C2.19 3.636.794 6.725.658 9.909c-.137 3.184.926 6.47 2.682 9.341l3.25 5.6-.008-.016c1.623 2.948 3.947 5.505 6.788 6.979 2.842 1.475 6.228 1.817 9.677.313a.653.653 0 0 0 .083-.041l1.262-.725c.584-.332.877-.978.925-1.543.049-.562-.066-1.11-.24-1.65-.341-1.066-.936-2.103-1.427-2.814-.929-1.597-1.825-2.705-2.861-3.325a3.263 3.263 0 0 0-3.32-.025l-1.566.902c-.462.267-1.003.236-1.572-.005-.567-.24-1.092-.722-1.287-1.06L9.18 15.178c-.195-.339-.355-1.03-.28-1.641.073-.609.32-1.085.783-1.352l1.522-.875c.04.204.155.39.322.513l8.24 6.475c.537.421 1.171.655 1.81.692a.899.899 0 0 0 .1 0 3.233 3.233 0 0 0 1.808-.692l11.35-8.916v14.73c0 .224-.256.52-.758.52H26.22a.85.85 0 1 0 0 1.697h7.858c1.284 0 2.464-.929 2.464-2.217V8.43c0-1.29-1.18-2.217-2.464-2.217H12.378a15.12 15.12 0 0 0-.957-1.93c-.374-.778-.98-1.808-1.74-2.635-.383-.42-.796-.791-1.313-1.032V.62A2.189 2.189 0 0 0 7.49.413Z" fill="#fff"/></svg>