<svg xmlns="http://www.w3.org/2000/svg" width="30" height="30"><path d="M10.473 26.605h.62c.06 0 .114-.058.173-.058.054-.055.054-.113.054-.227 0-.113 0-.168-.054-.226-.059-.055-.114-.055-.172-.055h-.621c-.059 0-.114.055-.172.055-.114.058-.114.172-.114.226 0 .059 0 .172.06.227.054 0 .112.058.226.058Zm1.808 0h4.305c.113 0 .227-.058.281-.058.059-.055.113-.113.113-.227 0-.113-.054-.168-.113-.226-.055-.055-.168-.055-.281-.055H12.28c-.113 0-.226.055-.281.055-.055.058-.113.113-.113.226 0 .114.058.172.113.227.055 0 .168.058.281.058Zm8.098-18.68c0-1.019-.34-1.98-.906-2.831-.567-.848-1.418-1.473-2.434-1.867a5.3 5.3 0 0 0-3.113-.282c-1.02.168-1.98.676-2.774 1.414A5.452 5.452 0 0 0 9.68 6.961a4.794 4.794 0 0 0 .28 2.945c.4.906 1.08 1.754 1.985 2.262a5.579 5.579 0 0 0 3 .852c1.414 0 2.774-.567 3.79-1.473 1.078-.961 1.644-2.266 1.644-3.621Zm-8.152 2.66a.43.43 0 0 0-.282-.112c-.113 0-.172.054-.285.113l-.168.168a4.144 4.144 0 0 1-1.078-2.488h.34c.113 0 .172-.059.285-.114a.46.46 0 0 0 .113-.226.43.43 0 0 0-.113-.227.432.432 0 0 0-.285-.113h-.34a4.145 4.145 0 0 1 1.078-2.492l.227.226a.414.414 0 0 0 .281.114c.113 0 .168-.055.281-.114.114-.054.114-.168.114-.226 0-.114-.055-.168-.114-.227l-.226-.226a4.427 4.427 0 0 1 2.605-1.02v.285c0 .114.059.168.113.227a.45.45 0 0 0 .282.113c.113 0 .172-.059.285-.113a.46.46 0 0 0 .113-.227v-.34c.961.055 1.867.454 2.602 1.02l-.223.226c-.059.055-.059.055-.059.114 0 .054-.054.113-.054.113v.113c0 .055.054.055.054.114.059.054.059.054.114.054h.34c.054 0 .113-.054.113-.054l.168-.172a4.145 4.145 0 0 1 1.078 2.492h-.34c-.113 0-.172.055-.285.113a.43.43 0 0 0-.113.227.46.46 0 0 0 .113.226.453.453 0 0 0 .285.114h.34a4.144 4.144 0 0 1-1.078 2.488l-.227-.227c-.054-.054-.054-.054-.113-.054h-.336c-.059 0-.113.054-.113.054-.059.059-.059.059-.059.114v.113s0 .113.059.113c0 .059.054.059.054.113l.227.227a4.86 4.86 0 0 1-3 1.074 4.86 4.86 0 0 1-3-1.074l.227-.227c.054-.054.054-.054.054-.113 0-.055.059-.113.059-.113 0-.055 0-.113-.059-.113Zm2.492-.964c.281 0 .508-.113.734-.281.227-.172.34-.395.395-.621.058-.227 0-.512-.168-.739a.882.882 0 0 0-.625-.453V6c0-.113-.055-.168-.11-.227-.058-.054-.113-.113-.226-.113-.114 0-.172.059-.227.113A.429.429 0 0 0 14.38 6v1.527c-.285.059-.453.227-.625.453-.168.227-.227.512-.168.739.055.226.168.449.394.62.227.169.454.282.739.282Zm0-1.469c.054 0 .168 0 .226.055l.168.172c.055.055.055.168 0 .226a.46.46 0 0 1-.113.227c-.055.055-.113.113-.227.113h-.226c-.055-.058-.113-.058-.168-.172-.059-.054-.059-.113-.059-.226s.059-.227.114-.281a.432.432 0 0 1 .285-.114Zm13.754 9.793h-2.72a.935.935 0 0 0-.679.282 1.049 1.049 0 0 0-.281.68v.394h-4.98v-2.149c0-.113-.06-.172-.114-.285a.453.453 0 0 0-.285-.113h-2.773v-2.262a6.95 6.95 0 0 0 3.964-2.719c.961-1.359 1.356-3.054 1.188-4.699-.285-1.582-1.074-3.113-2.32-4.242-1.246-1.078-2.832-1.7-4.473-1.7-1.64 0-3.281.622-4.473 1.7a7.115 7.115 0 0 0-2.261 4.3c-.172 1.641.226 3.34 1.187 4.7a6.935 6.935 0 0 0 3.961 2.715v2.265h-2.773c-.114 0-.168.055-.282.114a.414.414 0 0 0-.113.281v2.152H5.207v-.398a.951.951 0 0 0-.281-.68 1.057 1.057 0 0 0-.68-.281H1.527a.951.951 0 0 0-.68.281c-.167.114-.28.399-.28.625V28.98c0 .286.113.512.28.68.173.227.454.34.68.34h2.72a.951.951 0 0 0 .679-.281c.168-.172.281-.453.281-.68v-.398h19.527v.398c0 .281.114.508.286.68.168.168.453.281.68.281h2.714a.938.938 0 0 0 .68-.281c.172-.172.285-.453.285-.68V18.906a.925.925 0 0 0-.285-.68c-.114-.171-.395-.28-.621-.28Zm-24 11.094c0 .055 0 .113-.059.168-.055.059-.113.059-.168.059H1.527c-.054 0-.113 0-.168-.059-.058-.055-.058-.113-.058-.168v-2.605h3.172Zm0-3.34H1.3v-3.453h3.172Zm0-4.191H1.3v-2.602c0-.058 0-.113.058-.172.055-.054.114-.054.168-.054h2.72c.054 0 .112 0 .167.054.059.059.059.114.059.172Zm13.3-4.016h1.247v1.809h-1.247Zm-.734 0v1.809h-1.644v-1.809Zm-2.887-.738V14.66a8.197 8.197 0 0 0 1.696 0v2.094ZM8.945 7.926c0-1.192.336-2.38 1.016-3.34.68-.965 1.586-1.754 2.719-2.207 1.074-.453 2.32-.567 3.508-.34A5.95 5.95 0 0 1 19.3 3.68a5.942 5.942 0 0 1 1.644 3.114 6.269 6.269 0 0 1-.34 3.508c-.453 1.133-1.246 2.039-2.21 2.719a5.926 5.926 0 0 1-3.34 1.02 5.997 5.997 0 0 1-4.242-1.759C9.62 11.04 8.944 9.508 8.944 7.926Zm4.016 9.566h1.7v1.809h-1.7Zm-1.98 0h1.246v1.809H10.98ZM7.753 27.906H5.207V20.04h2.492v7.867Zm13.754 0H8.492V20.04h13.016Zm3.285 0h-2.492V20.04h2.492Zm3.906 1.133c0 .055 0 .113-.058.168-.055.059-.114.059-.168.059h-2.72c-.054 0-.112 0-.167-.059-.059-.055-.059-.113-.059-.168v-2.605H28.7Zm0-3.34h-3.172v-3.453H28.7Zm0-4.191h-3.172v-2.602c0-.058 0-.113.059-.172.055-.054.113-.054.168-.054h2.719c.054 0 .113 0 .168.054.058.059.058.114.058.172Zm0 0"/></svg>