<svg xmlns="http://www.w3.org/2000/svg" width="30" height="30" viewBox="0 0 30 29"><path d="M6.41 21.883c-1.094 0-2.047.922-2.047 1.976 0 1.055.953 1.977 2.047 1.977 1.09 0 2.043-.922 2.043-1.977 0-1.054-.953-1.976-2.043-1.976Zm0 2.765c-.547 0-.82-.394-.82-.789 0-.394.41-.793.82-.793.406 0 .817.399.817.793 0 .395-.41.79-.817.79Zm22.363-11.464-1.09-1.454c-.136-.261-.546-.261-.82-.128-.273.128-.273.527-.136.789l1.09 1.449v.133l-3.544 2.504-4.636-6.196.41-.789 2.863-1.98h.137l.816 1.187c.137.266.547.266.82.133.27-.133.27-.527.133-.793L24 6.855c-.41-.527-1.227-.66-1.773-.265l-1.09.793.68-1.32c.136-.262.136-.657.136-.922-.137-.262-.27-.528-.68-.79L14.047.79C13.773.66 13.363.66 13.09.66c-.406.262-.68.395-.817.79l-.546 1.054V1.316C11.727.66 11.184 0 10.363 0H2.316C1.636 0 .953.527.953 1.316V23.86C.953 26.758 3.41 29 6.273 29c1.09 0 2.18-.395 3.137-.922L15 24.254l4.637-3.164 8.726-6.063c.684-.527.82-1.316.41-1.843Zm-5.59 3.953L19.5 19.64l-2.863-3.953 2.316-4.352Zm-8.32 5.8-1.226-1.582 2.316-4.351 2.594 3.43Zm-1.363-3.69-1.773-.923v-4.879l3.957 1.977-.137.265Zm2.59-5.009-4.363-2.11v-5.01l6.546 3.296Zm-5.59-3.164H2.184V6.59H10.5ZM2.184 12.13H10.5v4.348H2.184Zm9.543 7.379 1.226.66-1.226 2.371Zm1.363 2.902.82 1.184-2.183 1.453Zm.273-20.433c0-.133 0-.133 0 0 .137-.133.137-.133.137 0l7.227 3.558v.266l-2.043 3.82-6.957-3.687v-.926Zm-11.047-.79h8.047c.137 0 .137 0 .137.13v4.218H2.184l.132-4.348c-.132 0-.132 0 0 0ZM6.41 27.813c-2.32 0-4.226-1.843-4.226-4.085V17.53H10.5v6.196c0 2.375-1.91 4.085-4.09 4.085Zm19.363-17.136c.274 0 .543-.262.543-.528 0-.261-.27-.527-.543-.527s-.546.266-.546.527c0 .266.273.528.546.528Zm0 0"/></svg>