<svg xmlns="http://www.w3.org/2000/svg" width="30" height="30" viewBox="0 0 30 29"><path d="M25.773 14.238C25.637 13.973 20.863 7.91 15 7.91c-5.863 0-10.637 6.063-10.773 6.328a.81.81 0 0 0 0 .79C4.363 15.288 9 21.354 15 21.354c5.863 0 10.637-6.066 10.773-6.328a.81.81 0 0 0 0-.789ZM15 19.906c-4.363 0-8.184-3.957-9.273-5.273 1.09-1.32 4.91-5.274 9.273-5.274 4.363 0 8.184 3.954 9.273 5.274-1.09 1.316-4.91 5.273-9.273 5.273Zm0-9.23c-2.316 0-4.363 1.847-4.363 4.219 0 2.242 1.91 4.218 4.363 4.218 2.316 0 4.363-1.843 4.363-4.218 0-2.372-2.047-4.22-4.363-4.22Zm0 6.988c-1.637 0-2.863-1.187-2.863-2.77 0-1.582 1.226-2.765 2.863-2.765s2.863 1.184 2.863 2.766c0 1.449-1.226 2.77-2.863 2.77Zm0 0"/></svg>