<svg xmlns="http://www.w3.org/2000/svg" width="30" height="30" viewBox="0 0 30 29"><path d="M17.184 11.074c.406 0 .68-.265.68-.66V8.566c0-.394-.274-.656-.68-.656h-4.368c-.406 0-.68.395-.68.656v1.715c0 .395.274.66.68.66h4.368ZM13.09 8.832h3.957v1.45H13.09Zm6.137 11.469c-.41 0-.68.262-.68.66v1.71c0 .395.27.661.68.661h4.226c.41 0 .684-.266.684-.66V20.96c0-.398-.274-.66-.684-.66Zm4.09 2.238h-3.954v-1.45h3.953Zm-12.544-2.238H6.547c-.41 0-.684.262-.684.66v1.71c0 .395.274.661.684.661h4.226c.41 0 .68-.266.68-.66V20.96c0-.398-.27-.66-.68-.66Zm-.136 2.238H6.684v-1.45h3.953Zm18.68 2.11H28.09v-1.583c0-.261-.137-.394-.406-.394-.274 0-.41 0-.41.265v1.583H15.41V13.184h3.953v2.898c0 .262.137.395.274.527.273.133.41.133.68 0l.956-.394.954.394c.136 0 .273.133.273.133.137 0 .273 0 .41-.133.274-.132.274-.394.274-.527v-2.898h4.09v7.906c0 .265.136.398.41.398.27 0 .406-.133.406-.398v-7.906c0-.528-.406-.926-.953-.926h-5.453V.922C21.816.395 21.41 0 20.864 0H9.136c-.547 0-.953.395-.953.922v2.11c0 .265.132.394.406.394.273 0 .41-.13.41-.395V.921h3.953v2.903c0 .262.137.395.274.528.136.128.273.128.41.128.136 0 .273 0 .273-.128L15 3.824l.953.395c.274.133.547.133.684 0 .273-.133.273-.395.273-.528V.79h3.953v11.469H9.137v-7.38c0-.265-.137-.398-.41-.398-.274 0-.543.266-.543.399v7.379H2.727c-.543 0-.954.398-.954.926v11.464H.683c-.41 0-.683.266-.683.66v1.188c0 .395.273.66.684.66h1.09v1.184c0 .398.41.793.816.793h1.226c.41 0 .82-.395.82-.793v-1.184h21v1.184c0 .398.41.793.817.793h1.23c.407 0 .817-.395.817-.793v-1.184h1.09c.41 0 .683-.265.683-.66V25.31c-.273-.395-.546-.66-.957-.66ZM16.09 3.425l-.817-.395c-.136-.133-.41-.133-.683 0l-.817.395V.789h2.18v2.637Zm4.226 9.758H22.5v2.632l-.816-.394c-.137-.133-.41-.133-.684 0l-.816.394v-2.632Zm-12.816 0h2.184v2.632l-.82-.394c-.137-.133-.41-.133-.68 0l-.82.394Zm-4.773 0h3.957v2.898c0 .262.132.395.27.527.273.133.41.133.683 0l.953-.394.957.394c.137 0 .27.133.27.133.136 0 .273 0 .41-.133.273-.132.273-.394.273-.527v-2.898h3.953v11.464H2.727Zm.957 15.027H2.59v-1.055h1.094Zm23.726 0h-1.094v-1.055h1.094Zm1.774-1.98H.816v-.79h28.23v.79Zm0 0"/></svg>