<svg xmlns="http://www.w3.org/2000/svg" width="30" height="30"><path d="m11.832 13.055 3.39 2.054a.589.589 0 0 0 .61 0l3.39-2.054a.578.578 0 0 0 .278-.5v-4a.582.582 0 0 0-.277-.5L15.832 6a.607.607 0 0 0-.61 0l-3.39 2.055a.591.591 0 0 0-.277.5v4c0 .222.113.39.277.5Zm.89-3.5 2.223 1.336v2.664l-2.222-1.332Zm5.669 2.668-2.223 1.332V10.89l2.223-1.336Zm-2.836-5.055 2.277 1.387-2.277 1.39-2.278-1.39Zm13.836 13.5h-2.614V5.609A.615.615 0 0 0 26.168 5h-4.336l-1-1A1.22 1.22 0 0 0 20 3.668c-.332 0-.61.11-.832.332l-.113.11a12.064 12.064 0 0 0-1.446-.61v-.11c0-.667-.554-1.222-1.218-1.222h-1.723c-.668 0-1.223.555-1.223 1.223v.164c-.5.168-.945.336-1.445.613l-.11-.113a1.23 1.23 0 0 0-.835-.332c-.332 0-.61.109-.832.332L9.277 5H4.945V3.945a.617.617 0 0 0-.613-.613H2.5C1.11 3.332 0 4.5 0 5.832v3.223c0 .336.277.613.61.613a.617.617 0 0 0 .613-.613V5.832c0-.723.609-1.332 1.332-1.332h1.277v14H2.5c-.5 0-.945.11-1.332.39v-4.613a.616.616 0 0 0-.613-.609.615.615 0 0 0-.61.61V21c0 1.39 1.11 2.5 2.5 2.5h3.332v3.723c0 .332.278.609.614.609h23c.332 0 .609-.277.609-.61v-5.945a.615.615 0 0 0-.61-.609ZM11.055 4.832s.054 0 0 0c.054 0 .054 0 0 0l.5.445c.168.168.5.223.722.055.614-.387 1.223-.664 1.891-.777.277-.055.441-.278.441-.555v-.61s0-.058.059-.058h1.723s.054 0 .054.059v.664c0 .277.164.5.446.554a7.09 7.09 0 0 1 1.886.782c.223.164.555.109.723-.059l.5-.5 1.223 1.223v.054l-.446.446c-.168.168-.222.5-.054.722.386.614.668 1.223.777 1.946a.54.54 0 0 0 .555.445h.668s.054 0 .054.055v1.722s0 .055-.054.055h-.668a.54.54 0 0 0-.555.445 8.577 8.577 0 0 1-.777 1.946c-.168.218-.114.554.054.718l.446.446v.054L20 16.332l-.445-.441c-.164-.168-.5-.223-.723-.059-.61.39-1.223.668-1.941.777a.544.544 0 0 0-.446.559v.664s0 .059-.054.059h-1.723s-.059 0-.059-.059v-.664c0-.277-.164-.5-.441-.559a8.1 8.1 0 0 1-1.945-.777c-.114-.055-.223-.11-.332-.11a.497.497 0 0 0-.391.169l-.39.386-1.22-1.222V15l.442-.445c.168-.164.223-.5.059-.723-.391-.61-.668-1.223-.782-1.941-.054-.282-.277-.446-.554-.446H8.39s-.059 0-.059-.054V9.668s0-.059.059-.059h.664c.277 0 .5-.164.554-.441a8.277 8.277 0 0 1 .782-1.945c.164-.223.109-.555-.059-.723l-.441-.39v-.055ZM2.5 22.332c-.723 0-1.332-.61-1.332-1.332 0-.723.61-1.332 1.332-1.332h1.89c.333 0 .61-.277.61-.613V6.168h3.723c0 .277.109.555.332.723L9.168 7a11.47 11.47 0 0 0-.613 1.445H8.39c-.668 0-1.223.555-1.223 1.223v1.723c0 .664.555 1.218 1.223 1.218h.164c.168.5.336.946.613 1.446l-.113.113c-.446.441-.446 1.223 0 1.723l1.222 1.218c.223.223.555.336.832.336.336 0 .614-.113.836-.336l.11-.109c.445.223.945.445 1.445.61v.167c0 .668.555 1.223 1.223 1.223h1.722c.664 0 1.223-.555 1.223-1.223v-.168A7.84 7.84 0 0 0 19.109 17l.114.11c.222.222.554.335.832.335.336 0 .613-.113.836-.336l1.218-1.218c.446-.446.446-1.223 0-1.723L22 14.055c.223-.446.445-.946.61-1.446h.167c.668 0 1.223-.554 1.223-1.218V9.668c0-.668-.555-1.223-1.223-1.223h-.168A7.873 7.873 0 0 0 22 7l.11-.11c.222-.222.335-.5.335-.722h3.223v14.5H6.445a.616.616 0 0 0-.613.61v1.054Zm26.332 4.336h-1.723v-2.5a.616.616 0 0 0-.609-.613.616.616 0 0 0-.61.613v2.5h-1.722v-1.445a.62.62 0 0 0-.613-.614.619.619 0 0 0-.61.614v1.445h-1.722v-2.5a.617.617 0 0 0-.614-.613.616.616 0 0 0-.609.613v2.5h-1.723v-1.445a.619.619 0 0 0-.609-.614.62.62 0 0 0-.613.614v1.445h-1.723v-2.5a.616.616 0 0 0-.61-.613.62.62 0 0 0-.613.613v2.5h-1.332v-1.445a.619.619 0 0 0-.609-.614.62.62 0 0 0-.613.614v1.445H9.832v-2.5a.616.616 0 0 0-.61-.613.62.62 0 0 0-.613.613v2.5H6.891v-4.777h21.832v4.777ZM.609 12.278a.616.616 0 0 0 .614-.61.617.617 0 0 0-.614-.613c-.332.054-.609.277-.609.613 0 .332.277.61.61.61Zm0 0"/></svg>