<svg xmlns="http://www.w3.org/2000/svg" width="30" height="30"><path d="M14.5 11.445c.223.164.5.164.668-.054L18.109 7c.114-.223.059-.5-.109-.61-.223-.113-.5-.058-.61.11l-2.613 4-1.445-1.39a.439.439 0 0 0-.61 0 .436.436 0 0 0 0 .613c-.054-.055 1.778 1.722 1.778 1.722Zm.277 6.723c.114.055.168.055.278.055.113 0 .168 0 .277-.055C22 15 23.168 8.109 23.332 6.109c.059-.441-.223-.886-.664-1.054a3.775 3.775 0 0 1-2.336-3.223.858.858 0 0 0-.887-.777h-9c-.445 0-.836.336-.836.777a3.77 3.77 0 0 1-2.332 3.223c-.445.168-.668.613-.609 1.054.223 2.114 1.387 8.946 8.11 12.059ZM7.61 5.891c1.614-.668 2.723-2.223 2.836-4h9a4.704 4.704 0 0 0 2.887 3.941c.059.059.113.113.113.168-.168 1.89-1.222 8.277-7.39 11.277C8.832 14.391 7.723 8 7.5 6.11c0-.109.055-.164.11-.218Zm1.114 2.441c.054.223.277.39.554.336a.462.462 0 0 0 .332-.559c-.109-.386-.218-.832-.277-1.218a6.377 6.377 0 0 0 2.5-3.282l6.336-.054a6.178 6.178 0 0 0 2.555 3.277c-.055.39-.168.836-.278 1.223-.054.222.055.5.332.554.223.059.5-.054.555-.332.113-.5.223-1 .277-1.445.059-.277-.054-.555-.332-.664a5.272 5.272 0 0 1-2.332-3c-.113-.277-.336-.5-.668-.5h-6.609c-.277 0-.559.223-.668.5-.39 1.277-1.168 2.332-2.277 3a.782.782 0 0 0-.332.664c.109.559.218 1 .332 1.5ZM20.39 9.668c-.223-.113-.5 0-.559.223-1 2.441-2.61 4.332-4.777 5.554-2.164-1.222-3.778-3.054-4.832-5.5-.114-.222-.332-.336-.555-.222-.223.109-.336.332-.223.554 1.164 2.668 2.946 4.723 5.332 6a.717.717 0 0 0 .332.055c.114 0 .223-.055.336-.11 2.387-1.331 4.164-3.39 5.278-6.054 0-.168-.114-.445-.332-.5ZM2.832 23.5c-.832 0-1.555.723-1.555 1.555 0 .836.723 1.554 1.555 1.554.836 0 1.559-.718 1.559-1.554 0-.832-.723-1.555-1.559-1.555Zm0 2.223a.641.641 0 0 1-.664-.668.64.64 0 0 1 .664-.664c.39 0 .668.277.668.664 0 .336-.332.668-.668.668Zm26.836-6.555c-.559-.836-1.723-1.059-2.559-.5L21.391 22.5l-1.223-.055-.059-.336a2.657 2.657 0 0 0-2.277-2.386l-6.164-.555c-.223-.059-.89-.223-2.723-1.277C8 17.332 6.891 17.055 5.832 17v-1.168c0-.555-.441-1.055-1.055-1.055H1.055C.5 14.777 0 15.223 0 15.832v11.39c0 .555.445 1.055 1.055 1.055h3.722c.555 0 1.055-.445 1.055-1.054v-.332l5.39 2.054s.446.164 1.278.11l9-1.278c.777-.109 1.5-.445 2.11-.945l5.835-5.223c.61-.664.778-1.664.223-2.441Zm-.89 1.777L23 26.11c-.5.391-1.055.668-1.668.723l-9 1.277c-.277.059-.555 0-.832-.054L5.777 25.89v-5a.479.479 0 0 0-.445-.446c-.223 0-.441.223-.441.446v6.332c0 .109-.059.168-.168.168H1.055c-.11 0-.164-.059-.164-.168V15.89c0-.114.054-.168.164-.168h3.722c.114 0 .168.054.168.168v3.054c0 .223.223.446.446.446.218 0 .441-.223.441-.446v-1.054c.945.054 1.89.332 2.723.777 2.222 1.277 2.836 1.387 3.054 1.387l6.168.554a1.726 1.726 0 0 1 1.5 1.614v.222l-8.277.5c-.277 0-.5-.168-.668-.336-.164-.164-.441-.218-.61-.054-.167.168-.222.445-.054.613.332.387.777.61 1.277.664.278.059 8.887-.555 8.887-.555l1.723.114c.113 0 .168 0 .277-.059l5.836-3.887c.441-.277 1-.168 1.332.278.223.332.168.886-.223 1.222Zm0 0"/></svg>