<svg xmlns="http://www.w3.org/2000/svg" width="30" height="30" viewBox="0 0 30 29"><path d="m13.227 25.309-3.68 2.636c-.274.133-.41.528-.137.793.137.262.543.395.817.13l5.046-3.56v-.261l-3-5.8c.137-.794-.273-.923-.546-.794-.274.133-.41.527-.274.793l2.594 4.875c-6.137-.527-10.91-5.402-10.91-11.465C3.137 6.328 8.453 1.187 15 1.187s11.863 5.141 11.863 11.47c0 .394.274.655.684.655.406 0 .68-.261.68-.656C28.227 5.668 22.227 0 15 0S1.773 5.668 1.773 12.785c0 6.328 5.043 11.735 11.454 12.524Zm0 0"/></svg>