<svg xmlns="http://www.w3.org/2000/svg" width="30" height="30" viewBox="0 0 30 29"><path d="M26.184 3.691C23.727 1.316 20.59 0 17.184 0c-3.41 0-6.684 1.316-9.137 3.691-2.457 2.372-3.82 5.403-3.82 8.7 0 3.03 1.09 5.933 3.136 8.171l-7.09 6.856c-.41.395-.41.922 0 1.187.137.262.41.395.543.395.137 0 .41-.133.684-.262l7.09-6.855c2.32 1.976 5.32 3.031 8.457 3.031 3.406 0 6.68-1.32 9.137-3.691C28.637 18.852 30 15.816 30 12.39c0-3.297-1.363-6.329-3.816-8.7Zm-1.23 16.344c-4.364 4.219-11.454 4.219-15.68 0-4.364-4.219-4.364-10.941 0-15.156 2.18-2.11 5.042-3.164 7.91-3.164 2.863 0 5.726 1.055 7.906 3.164 4.226 4.215 4.226 10.937-.137 15.156Zm0 0"/></svg>