<svg xmlns="http://www.w3.org/2000/svg" width="30" height="30" viewBox="0 0 30 29"><path d="M28.848 21.367h-.746c.156-.273.257-.597.257-.941 0-.969-.742-2.778-1.922-2.778s-1.925 1.832-1.925 2.778c0 .344.105.644.258.941h-.743v1.86H22.59v-5.282a1.73 1.73 0 0 0 .488-1.215c0-.468-.18-.89-.488-1.214v-3.149c.203-.222.332-.469.41-.742h1.512v3.246c0 1.016.87 1.86 1.925 1.86 1.051 0 1.922-.844 1.922-1.86V8.824h.973v-.918h-5.77v.918h.977v1.86h-1.512a2.014 2.014 0 0 0-.41-.746V7.905c0-.77-.644-1.386-1.437-1.386-.797 0-1.438.617-1.438 1.386v2.032a1.757 1.757 0 0 0-.484 1.214c0 .473.18.895.484 1.215v3.149a1.828 1.828 0 0 0-.41.746h-2v-.946h.977v-.941H13.46v.941h.976v4.489a.46.46 0 0 0-.128.097l-.54.524h-1.488a9.751 9.751 0 0 0-2.664-4.563v-2.379h.485c1.335 0 2.41-1.043 2.41-2.332V9.594l.18-.102a1.31 1.31 0 0 0 .769-1.215c0-.37-.152-.718-.41-.964a1.747 1.747 0 0 1-.54-1.29v-.718l.231-.223c.488-.473.746-1.066.746-1.71 0-1.34-1.129-2.43-2.515-2.43h-3.59c-.715 0-1.434.124-2.074.347A2.937 2.937 0 0 0 2.87 0C1.281 0 0 1.238 0 2.777 0 3.72.512 4.61 1.309 5.105a5.925 5.925 0 0 0-.36 2.008c0 2.356 1.36 4.489 3.54 5.551l.304.152v.817c-1.691.695-2.82 2.254-2.871 4.039v10.21H0v.946h29.793v-.945h-.973v-1.856h.973v-2.8h-.973v-1.86ZM27.41 8.824v6.047c0 .52-.437.941-.973.941-.539 0-.976-.421-.976-.94V8.823ZM25.488 20.45c0-.695.59-1.86.973-1.86.387 0 .977 1.165.977 1.86 0 .52-.438.942-.977.942-.54 0-.973-.422-.973-.942ZM25 22.31h2.871v.941H25Zm-4.332.918v-4.711c.152.05.305.074.484.074.18 0 .336-.024.489-.074v4.71Zm.484-13.016c.54 0 .977.422.977.941 0 .524-.438.946-.977.946-.535 0-.972-.422-.972-.946 0-.52.437-.941.972-.941Zm0 2.8c.18 0 .336-.023.489-.073v1.984a1.506 1.506 0 0 0-.489-.074c-.18 0-.332.023-.484.074v-1.985c.152.051.305.075.484.075Zm0 2.778c.54 0 .977.422.977.941 0 .52-.438.942-.977.942-.535 0-.972-.422-.972-.942s.437-.94.972-.94Zm0-8.351c.258 0 .489.195.489.468v1.465a1.506 1.506 0 0 0-.489-.078c-.18 0-.332.027-.484.078V7.906c0-.273.23-.468.484-.468Zm-1.843 9.765c.074.27.23.543.41.742v5.282h-1.512a1.29 1.29 0 0 0 .074-.45v-.988c0-.598-.41-1.117-.972-1.289v-3.297Zm-4.899 3.914.54-.52c.202-.199.59-.148.718.126l.36.691h.82c.254 0 .46.2.46.45v.988c0 .25-.206.449-.46.449H14.41Zm1.95-5.773v4.633c-.231-.27-.59-.422-.977-.446v-4.187Zm-7.692-.274a10.227 10.227 0 0 0-2.875-1.46v-3.15L4.332 9.396a1.07 1.07 0 0 1-.46-.868c0-.597.51-1.09 1.128-1.09h.078l2.203 2.973.36 2.133H6.77v.941H8.69v1.586Zm1.434-2.527H8.59l-.309-1.86h3.258v.47c0 .769-.64 1.39-1.437 1.39Zm2.156-3.867-.719.32v.746H7.95L5.77 6.816v-.324c0-.52.438-.941.973-.941h4.797V6c0 .719.281 1.41.82 1.93.079.078.13.199.13.3a.435.435 0 0 1-.231.446ZM.973 2.777c0-1.015.875-1.859 1.925-1.859.59 0 1.153.273 1.512.719C3.258 2.23 2.31 3.148 1.72 4.238a1.815 1.815 0 0 1-.746-1.46Zm.949 4.36c0-2.899 2.46-5.278 5.46-5.278h3.567c.871 0 1.563.668 1.563 1.512 0 .395-.153.793-.461 1.067l-.23.222H7.69a.48.48 0 0 1-.484-.473c0-.269.23-.468.484-.468h.489v-.942H7.69c-.793 0-1.433.618-1.433 1.387 0 .172.023.348.101.496-.87.172-1.539.918-1.539 1.832-1.078.078-1.922.946-1.922 2.008 0 .621.309 1.242.82 1.613l1.102.793v.867c-1.793-.918-2.898-2.675-2.898-4.636Zm3.387 7.289c2.949.867 5.203 3.148 5.949 6.023h-2.59c-1.59 0-2.875-1.238-2.875-2.777H4.82c0 2.058 1.72 3.719 3.848 3.719h4.82v1.859h-4.82c-3.156 0-5.719-2.453-5.77-5.477.024-1.511.973-2.828 2.41-3.347ZM2.87 20.992c1.18 1.91 3.309 3.176 5.77 3.176h2.898v3.715H2.871Zm25.027 6.89H12.512v-1.855h15.386Zm.95-2.8H12.512v-.941h16.36v.941ZM26.922 6.965c.797 0 1.437-.621 1.437-1.387 0-.77-.64-1.39-1.437-1.39-.793 0-1.434.62-1.434 1.39 0 .766.64 1.387 1.434 1.387Zm0-1.86c.258 0 .488.2.488.473 0 .27-.203.469-.488.469-.281 0-.485-.2-.485-.469a.48.48 0 0 1 .485-.473Zm1.437-1.386c.793 0 1.434-.621 1.434-1.39 0-.767-.64-1.388-1.434-1.388-.797 0-1.437.622-1.437 1.387 0 .77.64 1.39 1.437 1.39Zm0-1.86c.258 0 .489.2.489.47a.48.48 0 0 1-.489.472c-.28 0-.488-.2-.488-.473.027-.27.23-.469.488-.469Zm-4.308.918c.797 0 1.437-.62 1.437-1.39C25.488.62 24.848 0 24.051 0c-.793 0-1.434.621-1.434 1.387 0 .77.613 1.39 1.434 1.39Zm0-1.859c.258 0 .488.2.488.469 0 .273-.207.472-.488.472s-.488-.199-.488-.472c0-.27.207-.469.488-.469Zm-8.18 12.566c.797 0 1.438-.62 1.438-1.386 0-.77-.641-1.391-1.438-1.391-.793 0-1.434.621-1.434 1.39-.027.766.641 1.387 1.434 1.387Zm0-1.859c.258 0 .488.2.488.473 0 .27-.207.468-.488.468a.485.485 0 0 1-.488-.496c0-.273.207-.445.488-.445Zm1.438-2.332c.793 0 1.433-.617 1.433-1.387s-.64-1.386-1.433-1.386c-.797 0-1.438.617-1.438 1.386 0 .77.64 1.387 1.438 1.387Zm0-1.855c.253 0 .484.195.484.468 0 .25-.203.473-.484.473-.282 0-.489-.2-.489-.473 0-.273.23-.468.489-.468Zm0 0" fill="#e76e5c"/></svg>