<svg xmlns="http://www.w3.org/2000/svg" width="30" height="30"><path d="m24.332 9.055.613-.61c.278-.277.387-.613.387-.945 0-.332-.164-.723-.387-.945l-1.5-1.5A1.231 1.231 0 0 0 23 4.777c-.168-.054-.332-.109-.5-.109-.168 0-.332.055-.5.11-.168.054-.332.167-.5.331l-1.055 1.059c-1.113-.559-2.336-.89-3.554-1.113V3.168h.332c.445 0 .832-.168 1.109-.445.277-.278.445-.723.445-1.114 0-.441-.168-.832-.445-1.109-.277-.332-.664-.5-1.11-.5h-4.445c-.445 0-.832.168-1.109.445-.277.278-.445.723-.445 1.11 0 .445.168.836.445 1.113s.723.441 1.11.441h.39V5a11.604 11.604 0 0 0-3.559 1.11L8.555 5.054a1.298 1.298 0 0 0-.946-.387c-.332 0-.718.164-.941.387l-1.5 1.5c-.277.277-.39.613-.39.945 0 .332.167.723.39.945l.61.61c-1.61 1.777-2.669 4.054-3.055 6.445a12.32 12.32 0 0 0 .945 7.055c1 2.222 2.61 4.113 4.61 5.445 1.945 1.332 4.277 2 6.722 2 2.445 0 4.777-.723 6.832-2 2.059-1.332 3.668-3.223 4.613-5.445 1-2.223 1.332-4.664.946-7.055a12.89 12.89 0 0 0-3.059-6.445Zm-2.223-3.387A.503.503 0 0 1 22.5 5.5c.168 0 .277.055.39.168l1.5 1.5c.11.11.165.223.165.387a.513.513 0 0 1-.164.39l-.614.61c-.777-.723-1.609-1.387-2.554-1.946ZM12 1.555c0-.223.055-.387.223-.555a.709.709 0 0 1 .554-.223h4.446c.222 0 .386.055.554.223a.709.709 0 0 1 .223.555c0 .222-.055.39-.223.554a.709.709 0 0 1-.554.223h-4.446a.709.709 0 0 1-.554-.223C12.055 2 12 1.777 12 1.555Zm1.945 1.613h2.11v1.777c-.332-.054-.723-.054-1.055-.054-.332 0-.723 0-1.055.054Zm-8.277 4 1.5-1.5a.495.495 0 0 1 .387-.168c.168 0 .277.055.39.168l.887.887c-.941.554-1.777 1.168-2.555 1.945l-.609-.61c-.113-.113-.168-.222-.168-.335 0-.164.055-.278.168-.387Zm9.332 22c-2.332 0-4.61-.668-6.5-2a11.512 11.512 0 0 1-4.332-5.277 11.796 11.796 0 0 1-.668-6.782c.445-2.277 1.555-4.386 3.223-6 1.609-1.664 3.722-2.777 6-3.218a11.818 11.818 0 0 1 6.777.664c2.168.89 3.945 2.39 5.277 4.336 1.278 1.941 2 4.164 2 6.5 0 3.109-1.222 6.109-3.445 8.277-2.223 2.164-5.223 3.5-8.332 3.5Zm7.555-19.223c0-.054-.055-.054-.11-.113-2-2-4.668-3.055-7.5-3.055a10.74 10.74 0 0 0-7.5 3.055s-.054 0-.054.059l-.059.054c-2 2-3.055 4.664-3.055 7.5 0 2.778 1.114 5.5 3.055 7.5 0 0 0 .055.059.055l.054.055c2 2 4.664 3.054 7.5 3.054 2.778 0 5.5-1.109 7.5-3.054 0 0 .055 0 .055-.055l.055-.055c2-2 3.054-4.668 3.054-7.5.059-2.777-1.054-5.5-3.054-7.5Zm.168 7.946h2.109c-.11 2.332-1 4.554-2.61 6.277l-.777-.836-.113-.11c-.055 0-.11-.054-.164-.054-.059 0-.113 0-.168.055a.118.118 0 0 0-.11.109l-.113.113c0 .055-.054.11-.054.164 0 .059 0 .114.054.168 0 .055.055.114.114.114l.777.777c-1.723 1.555-3.945 2.5-6.277 2.61v-2.11a.422.422 0 0 0-.114-.277.411.411 0 0 0-.277-.114.411.411 0 0 0-.277.114.422.422 0 0 0-.114.277v2.11c-2.332-.11-4.554-1-6.277-2.61l.89-.89c.055-.055.055-.11.055-.169 0-.054 0-.109-.054-.164 0-.054-.055-.113-.114-.113-.054-.055-.109-.055-.109-.11-.055 0-.11-.054-.168-.054-.055 0-.11 0-.164.055-.059 0-.113.054-.113.109l-.778.777a10.097 10.097 0 0 1-2.609-6.277h2.11a.42.42 0 0 0 .277-.11.43.43 0 0 0 .113-.277.422.422 0 0 0-.113-.277.404.404 0 0 0-.278-.113H5.168c.11-2.332 1-4.555 2.61-6.278l.777.778a.43.43 0 0 0 .277.113.422.422 0 0 0 .277-.113.404.404 0 0 0 .114-.278.411.411 0 0 0-.114-.277l-.777-.777a10.142 10.142 0 0 1 6.277-2.614v2.114c0 .109.059.222.114.277.054.055.168.11.277.11.11 0 .223-.055.277-.11a.43.43 0 0 0 .114-.277V7.609c2.332.114 4.554 1 6.277 2.614l-.777.777-.114.11c0 .058-.054.113-.054.167 0 .055 0 .114.054.168 0 .055.055.11.114.11.054.054.109.054.109.113.055 0 .11.055.168.055.055 0 .11 0 .164-.055.059 0 .113-.059.113-.113l.778-.778c1.554 1.723 2.5 3.946 2.609 6.278h-2.11a.404.404 0 0 0-.277.113.422.422 0 0 0-.113.277c0 .11.059.223.113.278.055.109.164.168.278.168Zm-3.278-5.336a4.698 4.698 0 0 0-2.777 1.336l-1.277 1.277c-.5-.059-1 0-1.391.223a2.158 2.158 0 0 0-1 1c-.223.441-.277.941-.223 1.386.055.5.278.946.668 1.278.332.336.778.554 1.278.668.5.054 1 0 1.386-.223a2.158 2.158 0 0 0 1-1c.223-.445.282-.945.223-1.39l1.277-1.278a4.52 4.52 0 0 0 1.336-2.777v-.164c0-.059-.054-.114-.113-.168-.055-.055-.11-.055-.164-.114-.113-.054-.168-.054-.223-.054ZM15 18.945c-.277 0-.555-.113-.832-.222-.223-.168-.445-.391-.559-.668-.109-.278-.164-.555-.054-.832a1.51 1.51 0 0 1 .39-.723c.164-.168.446-.332.723-.39.277-.055.555 0 .832.113.277.109.5.277.668.554.164.223.223.5.223.832 0 .391-.168.782-.446 1.059-.168.11-.554.277-.945.277Zm2.945-3.722-1 1a2.28 2.28 0 0 0-.722-.723l1-1c.5-.5 1.109-.832 1.777-1-.223.668-.555 1.277-1.055 1.723Zm0 0"/></svg>