<svg xmlns="http://www.w3.org/2000/svg" width="30" height="30"><path d="M29.332 1.367c-3.633 0-8.766.301-11.367 2.934-2.23 2.234-1.965 6.898-.164 8.965-.934 1.867-1.766 4.336-2.266 7.566C15 18.801 14.168 16.801 12.898 15c1.168-2.332 1.102-6.066-.832-8C9.434 4.367 4.332 4.066.7 4.066c-.367 0-.664.301-.664.668 0 3.633.297 8.766 2.93 11.368 1.101 1.097 2.8 1.597 4.469 1.597 1.8 0 3.601-.566 4.632-1.566 2.368 3.668 3 8.101 3 11.8 0 .368.301.669.668.669.368 0 .664-.301.664-.668 0-6.567 1.102-10.899 2.5-13.801 1.036.601 2.368.902 3.735.902 1.668 0 3.367-.5 4.469-1.601C29.699 10.832 30 5.699 30 2.066c0-.398-.3-.699-.668-.699ZM11.934 13.734c-1.368-1.601-3.133-3-5.368-4.066-.332-.168-.8-.035-.964.297-.168.336-.067.734.265.867l.098.066c2.234 1.067 3.933 2.47 5.234 4.137-.031.031-.066.098-.133.133-1.464 1.465-5.5 1.7-7.199 0-2.101-2.102-2.5-6.402-2.535-9.734 3.336.03 7.633.398 9.734 2.53 1.332 1.302 1.5 3.934.868 5.77Zm14.168-1.27c-1.5 1.5-4.868 1.5-6.637.47 1.57-2.602 3.27-3.766 4.203-4.434.297-.2.531-.367.664-.5.27-.266.27-.7 0-.965a.677.677 0 0 0-.965 0c-.101.098-.265.2-.5.363-1 .704-2.8 1.903-4.402 4.567-1.067-1.73-1.133-5.164.402-6.664C21 3.133 25.332 2.8 28.633 2.734c-.031 3.332-.399 7.633-2.531 9.73Zm0 0" fill="#7dc792"/></svg>