<svg width="24" height="24" fill="none" xmlns="http://www.w3.org/2000/svg"><path d="M4.89 15.954c2.367 2.83 5.217 5.057 8.47 6.634 1.238.586 2.893 1.283 4.739 1.402.114.005.223.01.338.01 1.238 0 2.233-.428 3.043-1.308.005-.005.015-.015.02-.025.288-.348.617-.661.96-.994.234-.224.472-.458.701-.697 1.06-1.104 1.06-2.506-.01-3.575l-2.989-2.99c-.507-.526-1.114-.805-1.75-.805-.637 0-1.248.279-1.77.801l-1.781 1.78c-.164-.094-.333-.179-.492-.258a6.118 6.118 0 0 1-.547-.299c-1.621-1.03-3.094-2.372-4.5-4.098-.712-.9-1.19-1.655-1.523-2.426a29.93 29.93 0 0 0 1.328-1.298c.15-.154.303-.309.458-.463.537-.537.825-1.159.825-1.79 0-.632-.283-1.253-.825-1.79L8.103 2.283c-.174-.174-.339-.344-.508-.518a27.278 27.278 0 0 0-1.01-1C6.075.265 5.473 0 4.836 0c-.631 0-1.238.264-1.77.77l-1.86 1.86A3.821 3.821 0 0 0 .066 5.078c-.094 1.19.125 2.452.691 3.979.87 2.362 2.184 4.555 4.133 6.898ZM1.28 5.182a2.63 2.63 0 0 1 .79-1.69l1.85-1.85c.289-.28.607-.424.915-.424.304 0 .612.145.896.433.333.308.646.632.984.975.17.174.343.348.517.527l1.482 1.482c.309.308.468.622.468.93 0 .308-.16.621-.468.93-.154.154-.308.313-.462.467-.463.468-.895.91-1.373 1.333l-.025.025c-.412.413-.348.806-.248 1.104l.015.04c.383.92.915 1.795 1.745 2.84 1.492 1.84 3.064 3.267 4.794 4.366.214.139.443.248.657.358.199.1.383.194.547.298l.054.03c.165.084.324.124.483.124.398 0 .656-.253.74-.338l1.86-1.86c.29-.288.602-.442.91-.442.379 0 .687.233.881.442l2.999 2.994c.597.597.592 1.243-.015 1.875-.209.224-.428.438-.662.661-.348.338-.71.687-1.039 1.08-.572.616-1.253.905-2.133.905-.085 0-.174-.006-.259-.01-1.631-.105-3.148-.741-4.287-1.284-3.093-1.496-5.808-3.62-8.061-6.315-1.855-2.233-3.103-4.312-3.929-6.54-.512-1.367-.706-2.466-.626-3.466Z" fill="#000"/></svg>