<svg xmlns="http://www.w3.org/2000/svg" width="30" height="30" viewBox="0 0 30 29"><path d="M23.453 21.617 16.637 11.47V3.297c0-.399-.274-.66-.684-.66h-3.137c-.406 0-.68.261-.68.66v8.172L6 21.617a2.474 2.474 0 0 0-.547 1.582c0 1.715 1.5 3.164 3.274 3.164h12.136c.684 0 1.227-.133 1.774-.527 1.363-.922 1.91-2.898.816-4.219Zm-2.59 3.43H8.727c-.41 0-.68-.133-.954-.266-.957-.527-1.226-1.715-.683-2.636l6.273-10.282c0-.133.137-.261.137-.261V3.953h2.047v7.649c0 .128 0 .261.137.394L22.5 22.277c.137.262.273.66.273 1.055-.136.922-.957 1.715-1.91 1.715ZM15 14.238l-1.09-.66-5.594 9.227c-.132.133-.132.261-.132.394 0 .395.27.66.68.66H13.5v-1.32H9.953Zm0 0"/></svg>