<svg xmlns="http://www.w3.org/2000/svg" width="30" height="30" viewBox="0 0 30 29"><path d="M27.273 7.406c-1.543.07-1.511.067-1.687.078l.918-2.523s-2.856 1.016-3.578 1.195c-1.903-1.648-4.727-1.722-6.746-.523-1.653.984-2.543 2.672-2.246 4.644-3.215-.433-5.93-1.91-8.07-4.394l-.676-.785-.508.898a5.268 5.268 0 0 0-.598 3.656c.106.5.281.977.527 1.426l-.582-.219-.07.938c-.07.953.262 2.066.879 2.976.176.254.402.54.684.817l-.301-.047.367 1.074a5.265 5.265 0 0 0 2.781 3.113c-1.297.532-2.344.872-4.066 1.418l-1.574.504 1.457.766c.55.293 2.511 1.273 4.449 1.566 4.3.653 9.148.121 12.406-2.718 2.75-2.391 3.652-5.793 3.465-9.336a2.168 2.168 0 0 1 .426-1.442c.785-1.023 1.566-2.05 2.343-3.082ZM23.781 9.66a3.502 3.502 0 0 0-.71 2.344c.187 3.57-.821 6.34-2.989 8.23-2.539 2.207-6.633 3.075-11.227 2.38-.832-.13-1.695-.41-2.406-.692 1.442-.48 2.555-.91 4.356-1.73l2.511-1.149-2.773-.172c-1.328-.086-2.434-.707-3.113-1.715.36-.023.707-.078 1.054-.172l2.645-.71-2.668-.633a3.98 3.98 0 0 1-2.426-1.633 3.866 3.866 0 0 1-.523-1.121c.265.07.578.12 1.082.168l2.468.238-1.957-1.477c-1.41-1.062-1.972-2.66-1.558-4.195 4.398 4.41 9.562 4.078 10.082 4.195-.113-1.074-.117-1.074-.149-1.18-.664-2.273.793-3.429 1.454-3.82C18.309 6 20.488 5.875 22 7.223c.328.289.766.406 1.18.304.37-.09.675-.183.972-.285l-.617 1.711h.79l-.544.707Zm0 0"/></svg>