<svg xmlns="http://www.w3.org/2000/svg" width="30" height="30" viewBox="0 0 30 29"><path d="M26.59 14.633c-.406 0-.68.262-.68.656v6.2c0 1.71-1.363 3.03-3.137 3.03H7.227c-1.774 0-3.137-1.32-3.137-3.03V15.16c0-.398-.274-.66-.68-.66-.41 0-.683.262-.683.66v6.328c0 2.371 2.046 4.348 4.5 4.348h15.41c2.453 0 4.5-1.977 4.5-4.348V15.29c.136-.262-.137-.656-.547-.656ZM15.547 4.219c-.137-.133-.41-.266-.547-.266-.137 0-.41 0-.547.266L10.09 8.437c-.274.262-.274.79 0 1.055a.681.681 0 0 0 .957 0l3.27-3.164v13.84c0 .395.273.66.683.66.41 0 .684-.265.684-.66V6.328l3.27 3.164a.681.681 0 0 0 .956 0 .625.625 0 0 0 0-.926Zm0 0"/></svg>