<svg xmlns="http://www.w3.org/2000/svg" width="30" height="30"><path d="M28.867 16.133c0-.625-.281-1.188-.734-1.586.394-.34.68-.848.68-1.414 0-.625-.286-1.188-.793-1.528.226-.34.394-.68.394-1.132 0-1.02-.848-1.868-1.867-1.868a12.361 12.361 0 0 0-4.3-5.324c-2.04-1.414-4.474-2.148-6.966-2.148-2.433 0-4.754.734-6.789 2.035a.622.622 0 0 0-.172.738c.172.281.512.34.735.168a11.191 11.191 0 0 1 6.226-1.867c4.473 0 8.551 2.719 10.305 6.738-.512.336-.793.903-.793 1.528 0 .62.281 1.187.793 1.527-.227.34-.398.68-.398 1.133 0 .453.171.906.453 1.187-.621.399-1.02 1.075-1.02 1.813 0 .34.113.68.227 1.02-.848.28-1.528 1.074-1.528 2.035 0 .171 0 .34.059.453a2.242 2.242 0 0 0-2.098 1.867c-.336-.168-.676-.227-1.074-.227-1.133 0-2.094.68-2.488 1.645a3.216 3.216 0 0 0-2.438-1.133c-.96 0-1.867.453-2.433 1.133a2.673 2.673 0 0 0-2.489-1.645c-.398 0-.738.059-1.078.227-.113-1.016-1.015-1.867-2.094-1.867.06-.168.06-.282.06-.453 0-.961-.626-1.754-1.528-2.036.168-.285.226-.625.226-1.02 0-.792-.398-1.413-1.02-1.812.282-.34.454-.734.454-1.187 0-.453-.172-.852-.399-1.133.454-.34.793-.906.793-1.527 0-.625-.34-1.192-.793-1.528a9.115 9.115 0 0 1 .852-1.644c.168-.227.113-.567-.172-.735-.226-.171-.566-.113-.734.168-.34.625-.68 1.246-.965 1.926a1.885 1.885 0 0 0-1.867 1.867c0 .453.172.852.398 1.133-.453.34-.793.906-.793 1.527 0 .567.281 1.079.68 1.418-.399.34-.68.903-.68 1.528 0 .96.621 1.754 1.528 2.035-.172.285-.227.625-.227 1.02 0 1.19.906 2.093 2.094 2.152-.055.168-.055.281-.055.453a2.15 2.15 0 0 0 2.149 2.152c.171 0 .34 0 .511-.058V24a2.656 2.656 0 0 0 2.66 2.66c.68 0 1.36-.281 1.809-.734a3.234 3.234 0 0 0 3.113 2.32 3.227 3.227 0 0 0 3.114-2.32 2.618 2.618 0 0 0 1.812.734 2.656 2.656 0 0 0 2.66-2.66v-.113c.172.058.34.058.512.058a2.15 2.15 0 0 0 2.148-2.152c0-.172 0-.34-.054-.453 1.132-.059 2.093-.961 2.093-2.152 0-.34-.113-.68-.226-1.02.906-.223 1.527-1.074 1.527-2.035Zm-1.133-3c0 .453-.34.793-.789.793a.774.774 0 0 1-.793-.793c0-.453.34-.793.793-.793.45 0 .79.34.79.793Zm-.34-2.66c0 .453-.34.793-.789.793a.774.774 0 0 1-.793-.793c0-.453.34-.793.793-.793.395 0 .79.394.79.793ZM3.567 12.34c.454 0 .793.34.793.793s-.34.793-.793.793-.734-.399-.734-.793c0-.453.336-.793.734-.793Zm.395-2.66c.453 0 .793.34.793.793s-.34.793-.793.793a.774.774 0 0 1-.793-.793c0-.399.398-.793.793-.793Zm-1.188 6.453c0-.625.508-1.078 1.075-1.078.566 0 1.078.511 1.078 1.078 0 .62-.512 1.074-1.078 1.074-.621 0-1.075-.453-1.075-1.074Zm1.247 3.055c0-.622.507-1.075 1.074-1.075a1.07 1.07 0 0 1 1.074 1.075 1.074 1.074 0 1 1-2.148 0Zm2.035 2.605c0-.625.511-1.074 1.078-1.074.566 0 1.074.508 1.074 1.074 0 .566-.508 1.074-1.074 1.074a1.077 1.077 0 0 1-1.078-1.074Zm4.304 3.848a1.64 1.64 0 1 1 0-3.281 1.64 1.64 0 0 1 0 3.28Zm4.922 1.586a2.148 2.148 0 0 1-2.148-2.153c0-1.187.96-2.148 2.148-2.148 1.192 0 2.153.96 2.153 2.148 0 1.192-.961 2.153-2.153 2.153Zm4.926-1.586a1.64 1.64 0 1 1 0-3.281 1.64 1.64 0 0 1 0 3.28Zm3.227-2.774a1.073 1.073 0 0 1-1.075-1.074c0-.566.508-1.074 1.075-1.074.62 0 1.074.508 1.074 1.074 0 .566-.508 1.074-1.074 1.074Zm2.039-2.601a1.077 1.077 0 1 1-.003-2.151 1.077 1.077 0 0 1 .003 2.15Zm1.246-3.059a1.074 1.074 0 0 1-1.078-1.074 1.077 1.077 0 1 1 2.152 0c0 .62-.453 1.074-1.074 1.074ZM6.453 5.547c.055.058.227.113.34.113.168 0 .34-.055.453-.226.227-.227.168-.622-.059-.793-.226-.227-.62-.168-.792.058-.227.281-.227.621.058.848Zm0 0"/></svg>