<svg xmlns="http://www.w3.org/2000/svg" width="30" height="30"><path d="M21.11 5.277c-2.165 0-3.942 1.778-3.942 3.946s1.777 3.945 3.941 3.945a3.96 3.96 0 0 0 3.946-3.945 3.96 3.96 0 0 0-3.946-3.946Zm0 7a3.047 3.047 0 0 1-3.055-3.054 3.047 3.047 0 0 1 3.054-3.055 3.047 3.047 0 0 1 3.059 3.055c.055 1.722-1.336 3.054-3.059 3.054Zm6.558-4.332-1.113-.336a6.385 6.385 0 0 0-.446-1.109l.559-1a.413.413 0 0 0-.059-.5l-1.218-1.223c-.114-.109-.336-.168-.5-.054l-1 .554c-.336-.222-.723-.332-1.114-.445l-.332-1.11A.48.48 0 0 0 22 2.392h-1.777c-.223 0-.391.109-.446.332l-.332 1.109c-.39.113-.777.277-1.113.445l-1-.554c-.164-.114-.387-.055-.5.054L15.609 5a.418.418 0 0 0-.054.5l.554 1c-.218.332-.332.723-.441 1.11l-1.113.335a.486.486 0 0 0-.332.446v1.777c0 .223.109.387.332.441l1.113.336a6.7 6.7 0 0 0 .441 1.11l-.554 1a.418.418 0 0 0 .054.5l1.223 1.222c.113.114.336.168.5.055l1-.555c.336.223.723.332 1.113.446l.332 1.109a.484.484 0 0 0 .446.336H22c.223 0 .39-.113.445-.336l.332-1.11c.391-.113.778-.277 1.114-.445l1 .555c.164.113.386.059.5-.055l1.218-1.222a.413.413 0 0 0 .059-.5l-.559-1c.223-.332.336-.723.446-1.11l1.113-.336a.48.48 0 0 0 .332-.441V8.332c0-.164-.11-.332-.332-.387Zm-.559 1.832-1 .278a.502.502 0 0 0-.332.336c-.109.5-.332.941-.554 1.332-.055.109-.114.277 0 .445l.5.887-.723.836-.945-.559a.625.625 0 0 0-.446 0 4.575 4.575 0 0 1-1.332.559.489.489 0 0 0-.332.332l-.277 1h-1.113l-.278-1a.496.496 0 0 0-.332-.332c-.5-.114-.945-.336-1.336-.559-.109-.055-.277-.11-.441 0l-.89.559-.778-.782.5-.886a.625.625 0 0 0 0-.446 4.5 4.5 0 0 1-.555-1.332.507.507 0 0 0-.336-.336l-1-.277v-1.11l1-.277a.5.5 0 0 0 .336-.336c.11-.5.278-.941.555-1.332.055-.109.11-.277 0-.445l-.5-.887.777-.777.891.5c.11.055.332.055.441 0 .446-.277.891-.445 1.336-.559a.496.496 0 0 0 .332-.332l.278-1.054h1.113l.277 1a.489.489 0 0 0 .332.332c.5.113.946.336 1.332.554.114.059.282.114.446 0l.945-.5.777.782-.5.886a.625.625 0 0 0 0 .446 4.5 4.5 0 0 1 .555 1.332.515.515 0 0 0 .336.336l1 .277ZM21.777 7.61c-.222 0-.445.059-.609.168a1.145 1.145 0 0 0-.613-.168 1.26 1.26 0 0 0-1.278 1.282c0 1.277 1.5 2.164 1.723 2.218.055.059.11.059.223.059.054 0 .168 0 .222-.059.164-.109 1.723-.941 1.723-2.218-.168-.668-.723-1.282-1.39-1.282Zm-.668 2.614c-.386-.223-1-.778-1-1.332 0-.223.168-.391.391-.391.11 0 .223.055.277.168.114.11.223.164.332.164.114 0 .282-.055.336-.164a.3.3 0 0 1 .278-.168c.222 0 .386.168.386.39.059.555-.609 1.11-1 1.333Zm-7.164 18.945-1.445-.5v-2.277h.445c.223 0 .387-.168.446-.391l.832-7.832v-.445c0-.891-.332-1.778-.891-2.5v-3.946c0-.886-.723-1.609-1.61-1.609H8.778c-.722 0-1.332.5-1.554 1.164-2.5-.164-4.446-2.277-4.446-4.832a.479.479 0 0 0-.445-.445c-.223 0-.441.222-.441.445 0 3 2.332 5.445 5.277 5.723v3.5c-.559.722-.89 1.554-.89 2.5v.445L7.222 26c0 .223.222.39.445.39h.441v2.278l-1.441.5c-.223.055-.336.332-.277.555.054.168.218.277.441.277H7l1.777-.61c.168-.058.278-.222.278-.445v-2.613H9.5c.223 0 .445-.223.445-.441v-7.446h.887v7.446c0 .218.223.441.445.441h.446v2.613c0 .164.109.332.277.446l1.777.609h.168c.164 0 .332-.11.446-.277-.114-.278-.223-.5-.446-.555ZM8.832 10.555h2.945c.391 0 .723.336.723.722v3.668H8.11v-3.668c0-.386.28-.722.722-.722Zm2.336 7H9.391a.479.479 0 0 0-.446.445v7.445H8l-.777-7.39v-.332c0-.668.222-1.332.668-1.891h4.832c.445.559.668 1.223.668 1.89v.333l-.836 7.445h-.946V18c0-.223-.218-.445-.441-.445ZM7.223 5.723a3.044 3.044 0 0 0 3.054 3.054 3.044 3.044 0 0 0 3.055-3.054A2.94 2.94 0 0 0 12 3.223c.277-.223.445-.614.445-1C12.445 1 11.445 0 10.223 0 9 0 8 1 8 2.223c0 .386.168.722.445 1-.722.5-1.222 1.445-1.222 2.5Zm4-2c-.778.886-1.891 1.386-3.055 1.554.223-1 1.11-1.722 2.164-1.722.277-.055.613.054.89.168Zm1.277 2c0 1.222-1 2.222-2.223 2.222-1.054 0-1.945-.777-2.168-1.777 1.446-.113 2.836-.777 3.782-1.89.386.331.609.89.609 1.445ZM9.39 2.609c-.222 0-.445-.218-.445-.441 0-.723.61-1.336 1.332-1.336.723 0 1.332.613 1.332 1.336a.472.472 0 0 1-.441.441Zm0 0"/></svg>