<svg xmlns="http://www.w3.org/2000/svg" width="30" height="30"><path d="M26.11 21.723c.5-.555.722-1.223.722-2 0-1.668-1.332-3-3-3-.887 0-1.723.386-2.277 1.054-.5.555-.723 1.223-.723 2 0 1.668 1.336 3 3 3a2.95 2.95 0 0 0 2.277-1.054Zm-4.387-1.946c0-.5.168-1 .5-1.386.386-.446 1-.723 1.609-.723 1.168 0 2.113.941 2.113 2.11 0 .5-.168 1-.5 1.39-.39.441-1 .723-1.613.723a2.111 2.111 0 0 1-2.11-2.114Zm6.168-4.054A5.857 5.857 0 0 0 23.945 14c-1.554-.055-3.054.555-4.168 1.61-1.109 1.113-1.722 2.558-1.722 4.113 0 .722.168 1.445.445 2.168.11.218.332.332.555.218.222-.109.336-.332.222-.554-.222-.555-.332-1.223-.332-1.832 0-1.332.5-2.555 1.446-3.446.941-.945 2.164-1.386 3.5-1.386a4.962 4.962 0 0 1 3.332 1.441 4.68 4.68 0 0 1 1.386 3.336c0 1.055-.332 2.11-.941 3l-2.39 3.277a5.322 5.322 0 0 0-.887 2l-.168.832c-.055.223-.223.332-.446.332a.485.485 0 0 1-.445-.332l-.164-.832c-.168-.722-.445-1.39-.89-2l-2.055-2.836a.46.46 0 0 0-.614-.109.455.455 0 0 0-.109.61l2.055 2.835c.336.5.613 1.055.722 1.664l.168.836c.11.61.664 1.055 1.278 1.055.609 0 1.168-.445 1.277-1.055l.168-.836c.11-.609.387-1.164.723-1.664l2.386-3.277a5.292 5.292 0 0 0 1.114-3.5c.164-1.445-.446-2.89-1.5-3.945Zm-22.782-8.5c.723 0 1.391-.332 1.891-.891a2.51 2.51 0 0 0 .61-1.61c0-.39-.055-.722-.22-1.054-.113-.223-.39-.336-.613-.223-.222.11-.332.387-.222.61.113.168.168.39.168.668 0 .386-.168.777-.391 1.054-.332.332-.777.555-1.223.555-.886 0-1.609-.723-1.609-1.61 0-.39.168-.777.39-1.054.333-.336.778-.559 1.22-.559h.222c.223.059.445-.109.5-.386.059-.223-.11-.446-.387-.5H5.11c-.718 0-1.441.277-1.886.832a2.559 2.559 0 0 0-.614 1.668c0 1.332 1.114 2.5 2.5 2.5Zm-1.832 2.886c.278.391.5.836.555 1.282l.168.664c.11.5.61.89 1.11.89.558 0 1-.39 1.113-.89l.168-.664c.109-.446.277-.891.554-1.282L8.832 7.5a4.841 4.841 0 0 0 .945-2.89c0-1.22-.5-2.333-1.332-3.22-.89-.835-2-1.335-3.222-1.39-1.278 0-2.5.445-3.391 1.332a4.806 4.806 0 0 0-1.387 3.39c0 1 .332 2 .946 2.778ZM2.445 2C3.168 1.277 4.11.945 5.11.945h.114c1 0 1.886.446 2.609 1.11.723.722 1.113 1.613 1.113 2.613 0 .832-.222 1.664-.777 2.332l-1.89 2.668c-.333.5-.61 1.055-.723 1.61l-.164.667c0 .11-.114.223-.282.223-.109 0-.218-.113-.277-.223l-.164-.668c-.113-.609-.39-1.109-.723-1.609L2 7c-.5-.668-.723-1.445-.723-2.277.055-1.055.446-2 1.168-2.723Zm22.832 3.055a.397.397 0 0 0 .055.613c.113.055.168.11.277.11.114 0 .223-.055.336-.169L26 5.555c.332-.387.5-.887.5-1.387a2.111 2.111 0 0 0-2.11-2.113c-.613 0-1.167.277-1.613.722a.397.397 0 0 0 .055.614.4.4 0 0 0 .613-.059c.223-.277.555-.441.946-.441a1.23 1.23 0 0 1 1.218 1.218c0 .391-.109.668-.332.946ZM21.055 2.39c.222.164.445.109.613-.114A3.418 3.418 0 0 1 24.445.891c.832 0 1.664.386 2.278 1 .609.609.945 1.441.945 2.277 0 .723-.223 1.441-.668 2.055l-.445.609c-.164.223-.11.445.113.613a.42.42 0 0 0 .277.11c.11 0 .278-.055.332-.164l.446-.614c.554-.722.832-1.609.832-2.554 0-1.114-.446-2.114-1.223-2.891C26.555.445 25.555 0 24.445 0a4.012 4.012 0 0 0-3.5 1.777.427.427 0 0 0 .055.555Zm-.723 23.941c0-.11-.055-.223-.164-.332a.397.397 0 0 0-.613.055c-.278.336-.555.613-.887.836a12.52 12.52 0 0 1-1.89.5c.5-1.059.89-2.5 1.222-4.282.055-.218-.11-.441-.332-.5-.223-.054-.445.114-.5.336-.39 2-.89 3.61-1.445 4.555-.391.055-.723.055-1.114.055-.386 0-.718 0-1.109-.055-.668-1.11-1.168-3-1.555-5.277.887.054 1.778.109 2.664.109.836 0 1.668-.055 2.5-.11.223 0 .446-.222.391-.445 0-.222-.223-.445-.445-.386-.778.054-1.61.109-2.446.109-.941 0-1.886-.055-2.777-.11a47.455 47.455 0 0 1-.387-5.835h7.11a.479.479 0 0 0 .445-.446c0-.218-.11-.386-.332-.441 0-2.059-.168-4-.39-5.723 1.445.164 2.89.446 4.113.832.277 1 .441 2 .609 3.055 0 .223.223.39.445.39h.055c.223 0 .39-.222.39-.5a39.543 39.543 0 0 0-.445-2.613c1.223.391 2.278.891 3.164 1.446.223.722.391 1.5.446 2.277 0 .223.222.39.445.39h.055a.417.417 0 0 0 .39-.5c-.336-3.277-1.89-6.277-4.336-8.5-2.441-2.222-5.664-3.445-9-3.445-1.332 0-2.718.223-4 .614-.218.054-.386.332-.277.554.059.223.336.387.559.278.5-.168 1-.278 1.554-.391-.554 1.277-1.054 3.059-1.39 5.223-.5.054-1 .113-1.5.222a.53.53 0 0 0-.387.5c.055.223.277.391.5.391.387-.059.832-.113 1.223-.168-.059.555-.114 1.11-.168 1.723 0 .222.168.445.386.5h.059c.223 0 .441-.168.441-.391.059-.664.114-1.277.223-1.887.89-.054 1.836-.113 2.777-.113.946 0 1.891.059 2.782.113.218 1.778.386 3.778.386 5.832h-6.332c0-.722 0-1.386.055-2.109a.44.44 0 0 0-.445-.445.44.44 0 0 0-.446.445c-.054.723-.054 1.387-.054 2.11H6.109v-.387a.436.436 0 0 0-.441-.446.437.437 0 0 0-.445.446v.441H2.168c.055-1.164.223-2.332.61-3.387.054-.222-.055-.5-.278-.554-.223-.059-.5.054-.555.277a12.971 12.971 0 0 0-.668 4.11c0 3.554 1.391 6.945 3.891 9.445s5.887 3.886 9.441 3.886c2 0 3.946-.441 5.782-1.277.218-.11.332-.387.218-.61-.054-.277-.164-.331-.277-.39ZM18.168 8.055c-.336-2.164-.836-3.946-1.39-5.223a10.67 10.67 0 0 1 1.89.5c1.11.945 2.055 2.277 2.832 3.89.223.5.445 1.055.61 1.61a17.935 17.935 0 0 0-3.942-.777Zm7.941 2.168c-.886-.446-1.886-.832-2.941-1.223-.223-.777-.5-1.555-.836-2.277-.441-.946-.941-1.832-1.555-2.555.778.441 1.555 1 2.223 1.61 1.39 1.277 2.445 2.777 3.11 4.445Zm-11.5-2.391c-.886 0-1.777.059-2.664.113.387-2.336.887-4.168 1.555-5.277.39-.059.723-.059 1.11-.059.39 0 .722 0 1.113.059.668 1.11 1.168 3 1.554 5.277-.886-.054-1.777-.113-2.668-.113Zm-2.164 19.559a11.016 11.016 0 0 1-1.89-.5c-1.5-1.282-2.664-3.223-3.446-5.446 1.223.332 2.559.555 3.946.723.336 2.11.836 3.941 1.39 5.223Zm-1.5-6.168c-1.445-.168-2.89-.446-4.168-.832-.386-1.5-.668-3.168-.668-4.836h4.446c0 2 .168 3.945.39 5.668Zm-8.777-5.668h3.055c.054 1.613.222 3.168.609 4.613-1.164-.39-2.277-.89-3.164-1.445-.277-1.055-.5-2.114-.5-3.168Zm.941 4.39a20.2 20.2 0 0 0 2.946 1.164c.554 1.836 1.39 3.5 2.39 4.836-2.336-1.336-4.222-3.445-5.336-6Zm0 0" fill="#ffef00"/></svg>