<svg xmlns="http://www.w3.org/2000/svg" width="30" height="30" viewBox="0 0 30 29"><path d="M10.09 18.191c.273 0 .547-.132.82-.527 1.906-3.297 3-5.008 3-5.14l-2.047-3.165a.75.75 0 0 0-.68-.394H8.317c-.132 0-.27 0-.406.129v.398l1.906 3.164-3 5.008v.395c.137.132.137.132.41.132ZM22.91 5.273h-2.863c-.274 0-.547.133-.82.528-3.954 6.722-6.137 10.281-6.274 10.543l3.957 6.988c.137.395.406.527.817.527h2.863c.137 0 .273 0 .41-.132.137-.133.137-.262 0-.395l-3.953-6.855 6.137-10.415c.132-.128.132-.261 0-.394 0-.395-.137-.395-.274-.395Zm0 0"/></svg>