<svg xmlns="http://www.w3.org/2000/svg" width="30" height="30" viewBox="0 0 30 29"><path d="M23.316 23.727H6.684c-2.868 0-5.32-2.372-5.32-5.141v-8.172c0-2.77 2.452-5.14 5.32-5.14h16.5c3 0 5.453 2.37 5.453 5.14v8.04c0 2.901-2.453 5.273-5.32 5.273ZM6.684 6.855c-2.047 0-3.82 1.582-3.82 3.692v8.039c0 1.977 1.636 3.691 3.82 3.691h16.5c2.043 0 3.816-1.582 3.816-3.691v-8.172c0-1.976-1.637-3.691-3.816-3.691h-16.5Zm5.726 12.653c-.137 0-.273 0-.41-.13a.726.726 0 0 1-.41-.66v-8.437c0-.261.137-.527.41-.66a.91.91 0 0 1 .816 0l7.094 4.219a.722.722 0 0 1 .406.66.722.722 0 0 1-.406.66l-7.094 4.219c-.132 0-.27.129-.406.129Zm.68-7.906v5.668l4.773-2.77Zm0 0"/></svg>